STARTFONT 2.1
FONT -cassio-limepie-Medium-R-normal--13-80-96-96-C-80-ISO10646-1
SIZE 13 96 96
FONTBOUNDINGBOX 7 13 0 -3
STARTPROPERTIES 21
FACE_NAME "limepie"
FAMILY_NAME "limepie"
WEIGHT_NAME "Medium"
SLANT "R"
PIXEL_SIZE 13
POINT_SIZE 80
RESOLUTION_X 96
RESOLUTION_Y 96
CHARSET_ENCODING "1"
CHARSET_REGISTRY "ISO10646"
CAP_HEIGHT 7
WEIGHT 10
X_HEIGHT 0
QUAD_WIDTH 7
DEFAULT_CHAR 8223
FONT_DESCENT 3
FONT_ASCENT 10
_GBDFED_INFO "Edited with gbdfed 1.6."
SPACING "C"
FOUNDRY "cassio"
COPYRIGHT "Copyright (c) 2021 Cássio Ribeiro Alves de Ávila"
ENDPROPERTIES
CHARS 520
STARTCHAR char32
ENCODING 32
SWIDTH 403 0
DWIDTH 7 0
BBX 7 13 0 -3
BITMAP
00
00
00
00
00
00
00
00
00
00
00
00
00
ENDCHAR
STARTCHAR char33
ENCODING 33
SWIDTH 403 0
DWIDTH 7 0
BBX 7 13 0 -3
BITMAP
00
00
10
10
10
10
10
00
10
10
00
00
00
ENDCHAR
STARTCHAR char34
ENCODING 34
SWIDTH 403 0
DWIDTH 7 0
BBX 7 13 0 -3
BITMAP
00
28
28
28
00
00
00
00
00
00
00
00
00
ENDCHAR
STARTCHAR char35
ENCODING 35
SWIDTH 403 0
DWIDTH 7 0
BBX 7 13 0 -3
BITMAP
00
00
28
28
7C
28
28
7C
28
28
00
00
00
ENDCHAR
STARTCHAR char36
ENCODING 36
SWIDTH 403 0
DWIDTH 7 0
BBX 7 13 0 -3
BITMAP
00
00
10
38
54
50
38
14
54
38
10
00
00
ENDCHAR
STARTCHAR char37
ENCODING 37
SWIDTH 403 0
DWIDTH 7 0
BBX 7 13 0 -3
BITMAP
00
00
20
54
24
08
10
20
48
54
08
00
00
ENDCHAR
STARTCHAR char38
ENCODING 38
SWIDTH 403 0
DWIDTH 7 0
BBX 7 13 0 -3
BITMAP
00
00
30
48
40
30
54
48
48
34
00
00
00
ENDCHAR
STARTCHAR char39
ENCODING 39
SWIDTH 403 0
DWIDTH 7 0
BBX 7 13 0 -3
BITMAP
00
10
10
10
00
00
00
00
00
00
00
00
00
ENDCHAR
STARTCHAR char40
ENCODING 40
SWIDTH 403 0
DWIDTH 7 0
BBX 7 13 0 -3
BITMAP
00
08
10
10
20
20
20
20
20
10
10
08
00
ENDCHAR
STARTCHAR char41
ENCODING 41
SWIDTH 403 0
DWIDTH 7 0
BBX 7 13 0 -3
BITMAP
00
20
10
10
08
08
08
08
08
10
10
20
00
ENDCHAR
STARTCHAR char42
ENCODING 42
SWIDTH 403 0
DWIDTH 7 0
BBX 7 13 0 -3
BITMAP
00
00
00
00
28
10
7C
10
28
00
00
00
00
ENDCHAR
STARTCHAR char43
ENCODING 43
SWIDTH 403 0
DWIDTH 7 0
BBX 7 13 0 -3
BITMAP
00
00
00
00
10
10
7C
10
10
00
00
00
00
ENDCHAR
STARTCHAR char44
ENCODING 44
SWIDTH 403 0
DWIDTH 7 0
BBX 7 13 0 -3
BITMAP
00
00
00
00
00
00
00
00
10
10
20
00
00
ENDCHAR
STARTCHAR char45
ENCODING 45
SWIDTH 403 0
DWIDTH 7 0
BBX 7 13 0 -3
BITMAP
00
00
00
00
00
00
7C
00
00
00
00
00
00
ENDCHAR
STARTCHAR char46
ENCODING 46
SWIDTH 403 0
DWIDTH 7 0
BBX 7 13 0 -3
BITMAP
00
00
00
00
00
00
00
00
10
10
00
00
00
ENDCHAR
STARTCHAR char47
ENCODING 47
SWIDTH 403 0
DWIDTH 7 0
BBX 7 13 0 -3
BITMAP
00
04
04
08
08
10
10
20
20
40
40
00
00
ENDCHAR
STARTCHAR char48
ENCODING 48
SWIDTH 403 0
DWIDTH 7 0
BBX 7 13 0 -3
BITMAP
00
00
38
44
44
54
54
44
44
38
00
00
00
ENDCHAR
STARTCHAR char49
ENCODING 49
SWIDTH 403 0
DWIDTH 7 0
BBX 7 13 0 -3
BITMAP
00
00
10
30
10
10
10
10
10
38
00
00
00
ENDCHAR
STARTCHAR char50
ENCODING 50
SWIDTH 403 0
DWIDTH 7 0
BBX 7 13 0 -3
BITMAP
00
00
38
44
04
08
10
20
40
7C
00
00
00
ENDCHAR
STARTCHAR char51
ENCODING 51
SWIDTH 403 0
DWIDTH 7 0
BBX 7 13 0 -3
BITMAP
00
00
38
44
04
18
04
04
44
38
00
00
00
ENDCHAR
STARTCHAR char52
ENCODING 52
SWIDTH 403 0
DWIDTH 7 0
BBX 7 13 0 -3
BITMAP
00
00
08
18
28
28
48
7C
08
08
00
00
00
ENDCHAR
STARTCHAR char53
ENCODING 53
SWIDTH 403 0
DWIDTH 7 0
BBX 7 13 0 -3
BITMAP
00
00
7C
40
40
78
04
04
44
38
00
00
00
ENDCHAR
STARTCHAR char54
ENCODING 54
SWIDTH 403 0
DWIDTH 7 0
BBX 7 13 0 -3
BITMAP
00
00
38
44
40
78
44
44
44
38
00
00
00
ENDCHAR
STARTCHAR char55
ENCODING 55
SWIDTH 403 0
DWIDTH 7 0
BBX 7 13 0 -3
BITMAP
00
00
7C
04
08
08
10
10
20
20
00
00
00
ENDCHAR
STARTCHAR char56
ENCODING 56
SWIDTH 403 0
DWIDTH 7 0
BBX 7 13 0 -3
BITMAP
00
00
38
44
44
38
44
44
44
38
00
00
00
ENDCHAR
STARTCHAR char57
ENCODING 57
SWIDTH 403 0
DWIDTH 7 0
BBX 7 13 0 -3
BITMAP
00
00
38
44
44
44
3C
04
44
38
00
00
00
ENDCHAR
STARTCHAR char58
ENCODING 58
SWIDTH 403 0
DWIDTH 7 0
BBX 7 13 0 -3
BITMAP
00
00
00
00
20
20
00
00
20
20
00
00
00
ENDCHAR
STARTCHAR char59
ENCODING 59
SWIDTH 403 0
DWIDTH 7 0
BBX 7 13 0 -3
BITMAP
00
00
00
00
20
20
00
00
20
20
40
00
00
ENDCHAR
STARTCHAR char60
ENCODING 60
SWIDTH 403 0
DWIDTH 7 0
BBX 7 13 0 -3
BITMAP
00
00
00
04
08
10
20
10
08
04
00
00
00
ENDCHAR
STARTCHAR char61
ENCODING 61
SWIDTH 403 0
DWIDTH 7 0
BBX 7 13 0 -3
BITMAP
00
00
00
00
00
7C
00
7C
00
00
00
00
00
ENDCHAR
STARTCHAR char62
ENCODING 62
SWIDTH 403 0
DWIDTH 7 0
BBX 7 13 0 -3
BITMAP
00
00
00
40
20
10
08
10
20
40
00
00
00
ENDCHAR
STARTCHAR char63
ENCODING 63
SWIDTH 403 0
DWIDTH 7 0
BBX 7 13 0 -3
BITMAP
00
00
38
44
44
08
10
00
10
10
00
00
00
ENDCHAR
STARTCHAR char64
ENCODING 64
SWIDTH 403 0
DWIDTH 7 0
BBX 7 13 0 -3
BITMAP
00
00
38
44
4C
54
54
4C
40
3C
00
00
00
ENDCHAR
STARTCHAR char65
ENCODING 65
SWIDTH 403 0
DWIDTH 7 0
BBX 7 13 0 -3
BITMAP
00
00
38
44
44
44
7C
44
44
44
00
00
00
ENDCHAR
STARTCHAR char66
ENCODING 66
SWIDTH 403 0
DWIDTH 7 0
BBX 7 13 0 -3
BITMAP
00
00
78
44
44
78
44
44
44
78
00
00
00
ENDCHAR
STARTCHAR char67
ENCODING 67
SWIDTH 403 0
DWIDTH 7 0
BBX 7 13 0 -3
BITMAP
00
00
38
44
40
40
40
40
44
38
00
00
00
ENDCHAR
STARTCHAR char68
ENCODING 68
SWIDTH 403 0
DWIDTH 7 0
BBX 7 13 0 -3
BITMAP
00
00
70
48
44
44
44
44
48
70
00
00
00
ENDCHAR
STARTCHAR char69
ENCODING 69
SWIDTH 403 0
DWIDTH 7 0
BBX 7 13 0 -3
BITMAP
00
00
7C
40
40
78
40
40
40
7C
00
00
00
ENDCHAR
STARTCHAR char70
ENCODING 70
SWIDTH 403 0
DWIDTH 7 0
BBX 7 13 0 -3
BITMAP
00
00
7C
40
40
78
40
40
40
40
00
00
00
ENDCHAR
STARTCHAR char71
ENCODING 71
SWIDTH 403 0
DWIDTH 7 0
BBX 7 13 0 -3
BITMAP
00
00
38
44
40
40
4C
44
44
38
00
00
00
ENDCHAR
STARTCHAR char72
ENCODING 72
SWIDTH 403 0
DWIDTH 7 0
BBX 7 13 0 -3
BITMAP
00
00
44
44
44
7C
44
44
44
44
00
00
00
ENDCHAR
STARTCHAR char73
ENCODING 73
SWIDTH 403 0
DWIDTH 7 0
BBX 7 13 0 -3
BITMAP
00
00
38
10
10
10
10
10
10
38
00
00
00
ENDCHAR
STARTCHAR char74
ENCODING 74
SWIDTH 403 0
DWIDTH 7 0
BBX 7 13 0 -3
BITMAP
00
00
38
08
08
08
08
08
08
70
00
00
00
ENDCHAR
STARTCHAR char75
ENCODING 75
SWIDTH 403 0
DWIDTH 7 0
BBX 7 13 0 -3
BITMAP
00
00
44
48
50
70
48
48
44
44
00
00
00
ENDCHAR
STARTCHAR char76
ENCODING 76
SWIDTH 403 0
DWIDTH 7 0
BBX 7 13 0 -3
BITMAP
00
00
40
40
40
40
40
40
40
7C
00
00
00
ENDCHAR
STARTCHAR char77
ENCODING 77
SWIDTH 403 0
DWIDTH 7 0
BBX 7 13 0 -3
BITMAP
00
00
44
6C
54
54
44
44
44
44
00
00
00
ENDCHAR
STARTCHAR char78
ENCODING 78
SWIDTH 403 0
DWIDTH 7 0
BBX 7 13 0 -3
BITMAP
00
00
44
64
64
54
54
4C
4C
44
00
00
00
ENDCHAR
STARTCHAR char79
ENCODING 79
SWIDTH 403 0
DWIDTH 7 0
BBX 7 13 0 -3
BITMAP
00
00
38
44
44
44
44
44
44
38
00
00
00
ENDCHAR
STARTCHAR char80
ENCODING 80
SWIDTH 403 0
DWIDTH 7 0
BBX 7 13 0 -3
BITMAP
00
00
78
44
44
44
78
40
40
40
00
00
00
ENDCHAR
STARTCHAR char81
ENCODING 81
SWIDTH 403 0
DWIDTH 7 0
BBX 7 13 0 -3
BITMAP
00
00
38
44
44
44
44
44
48
34
04
00
00
ENDCHAR
STARTCHAR char82
ENCODING 82
SWIDTH 403 0
DWIDTH 7 0
BBX 7 13 0 -3
BITMAP
00
00
78
44
44
78
48
44
44
44
00
00
00
ENDCHAR
STARTCHAR char83
ENCODING 83
SWIDTH 403 0
DWIDTH 7 0
BBX 7 13 0 -3
BITMAP
00
00
38
44
40
38
04
04
44
38
00
00
00
ENDCHAR
STARTCHAR char84
ENCODING 84
SWIDTH 403 0
DWIDTH 7 0
BBX 7 13 0 -3
BITMAP
00
00
7C
10
10
10
10
10
10
10
00
00
00
ENDCHAR
STARTCHAR char85
ENCODING 85
SWIDTH 403 0
DWIDTH 7 0
BBX 7 13 0 -3
BITMAP
00
00
44
44
44
44
44
44
44
38
00
00
00
ENDCHAR
STARTCHAR char86
ENCODING 86
SWIDTH 403 0
DWIDTH 7 0
BBX 7 13 0 -3
BITMAP
00
00
44
44
44
28
28
28
10
10
00
00
00
ENDCHAR
STARTCHAR char87
ENCODING 87
SWIDTH 403 0
DWIDTH 7 0
BBX 7 13 0 -3
BITMAP
00
00
44
44
44
54
54
38
28
28
00
00
00
ENDCHAR
STARTCHAR char88
ENCODING 88
SWIDTH 403 0
DWIDTH 7 0
BBX 7 13 0 -3
BITMAP
00
00
44
44
28
10
10
28
44
44
00
00
00
ENDCHAR
STARTCHAR char89
ENCODING 89
SWIDTH 403 0
DWIDTH 7 0
BBX 7 13 0 -3
BITMAP
00
00
44
44
44
28
10
10
10
10
00
00
00
ENDCHAR
STARTCHAR char90
ENCODING 90
SWIDTH 403 0
DWIDTH 7 0
BBX 7 13 0 -3
BITMAP
00
00
7C
04
08
10
10
20
40
7C
00
00
00
ENDCHAR
STARTCHAR char91
ENCODING 91
SWIDTH 403 0
DWIDTH 7 0
BBX 7 13 0 -3
BITMAP
00
38
20
20
20
20
20
20
20
20
20
38
00
ENDCHAR
STARTCHAR char92
ENCODING 92
SWIDTH 403 0
DWIDTH 7 0
BBX 7 13 0 -3
BITMAP
00
40
40
20
20
10
10
08
08
04
04
00
00
ENDCHAR
STARTCHAR char93
ENCODING 93
SWIDTH 403 0
DWIDTH 7 0
BBX 7 13 0 -3
BITMAP
00
38
08
08
08
08
08
08
08
08
08
38
00
ENDCHAR
STARTCHAR char94
ENCODING 94
SWIDTH 403 0
DWIDTH 7 0
BBX 7 13 0 -3
BITMAP
00
10
28
44
00
00
00
00
00
00
00
00
00
ENDCHAR
STARTCHAR char95
ENCODING 95
SWIDTH 403 0
DWIDTH 7 0
BBX 7 13 0 -3
BITMAP
00
00
00
00
00
00
00
00
00
00
FE
00
00
ENDCHAR
STARTCHAR char96
ENCODING 96
SWIDTH 403 0
DWIDTH 7 0
BBX 7 13 0 -3
BITMAP
00
20
10
00
00
00
00
00
00
00
00
00
00
ENDCHAR
STARTCHAR char97
ENCODING 97
SWIDTH 403 0
DWIDTH 7 0
BBX 7 13 0 -3
BITMAP
00
00
00
00
38
04
3C
44
4C
34
00
00
00
ENDCHAR
STARTCHAR char98
ENCODING 98
SWIDTH 403 0
DWIDTH 7 0
BBX 7 13 0 -3
BITMAP
00
40
40
40
58
64
44
44
44
78
00
00
00
ENDCHAR
STARTCHAR char99
ENCODING 99
SWIDTH 403 0
DWIDTH 7 0
BBX 7 13 0 -3
BITMAP
00
00
00
00
38
44
40
40
44
38
00
00
00
ENDCHAR
STARTCHAR char100
ENCODING 100
SWIDTH 403 0
DWIDTH 7 0
BBX 7 13 0 -3
BITMAP
00
04
04
04
3C
44
44
44
4C
34
00
00
00
ENDCHAR
STARTCHAR char101
ENCODING 101
SWIDTH 403 0
DWIDTH 7 0
BBX 7 13 0 -3
BITMAP
00
00
00
00
38
44
7C
40
44
38
00
00
00
ENDCHAR
STARTCHAR char102
ENCODING 102
SWIDTH 403 0
DWIDTH 7 0
BBX 7 13 0 -3
BITMAP
00
1C
20
20
78
20
20
20
20
20
00
00
00
ENDCHAR
STARTCHAR char103
ENCODING 103
SWIDTH 403 0
DWIDTH 7 0
BBX 7 13 0 -3
BITMAP
00
00
00
00
3C
44
44
44
4C
34
04
04
38
ENDCHAR
STARTCHAR char104
ENCODING 104
SWIDTH 403 0
DWIDTH 7 0
BBX 7 13 0 -3
BITMAP
00
40
40
40
58
64
44
44
44
44
00
00
00
ENDCHAR
STARTCHAR char105
ENCODING 105
SWIDTH 403 0
DWIDTH 7 0
BBX 7 13 0 -3
BITMAP
00
10
10
00
30
10
10
10
10
38
00
00
00
ENDCHAR
STARTCHAR char106
ENCODING 106
SWIDTH 403 0
DWIDTH 7 0
BBX 7 13 0 -3
BITMAP
00
10
10
00
30
10
10
10
10
10
10
10
60
ENDCHAR
STARTCHAR char107
ENCODING 107
SWIDTH 403 0
DWIDTH 7 0
BBX 7 13 0 -3
BITMAP
00
40
40
40
44
48
50
70
48
44
00
00
00
ENDCHAR
STARTCHAR char108
ENCODING 108
SWIDTH 403 0
DWIDTH 7 0
BBX 7 13 0 -3
BITMAP
00
30
10
10
10
10
10
10
10
08
00
00
00
ENDCHAR
STARTCHAR char109
ENCODING 109
SWIDTH 403 0
DWIDTH 7 0
BBX 7 13 0 -3
BITMAP
00
00
00
00
68
54
54
54
54
54
00
00
00
ENDCHAR
STARTCHAR char110
ENCODING 110
SWIDTH 403 0
DWIDTH 7 0
BBX 7 13 0 -3
BITMAP
00
00
00
00
58
64
44
44
44
44
00
00
00
ENDCHAR
STARTCHAR char111
ENCODING 111
SWIDTH 403 0
DWIDTH 7 0
BBX 7 13 0 -3
BITMAP
00
00
00
00
38
44
44
44
44
38
00
00
00
ENDCHAR
STARTCHAR char112
ENCODING 112
SWIDTH 403 0
DWIDTH 7 0
BBX 7 13 0 -3
BITMAP
00
00
00
00
58
64
44
44
44
78
40
40
40
ENDCHAR
STARTCHAR char113
ENCODING 113
SWIDTH 403 0
DWIDTH 7 0
BBX 7 13 0 -3
BITMAP
00
00
00
00
3C
44
44
44
4C
34
04
04
04
ENDCHAR
STARTCHAR char114
ENCODING 114
SWIDTH 403 0
DWIDTH 7 0
BBX 7 13 0 -3
BITMAP
00
00
00
00
58
64
40
40
40
40
00
00
00
ENDCHAR
STARTCHAR char115
ENCODING 115
SWIDTH 403 0
DWIDTH 7 0
BBX 7 13 0 -3
BITMAP
00
00
00
00
3C
40
38
04
04
78
00
00
00
ENDCHAR
STARTCHAR char116
ENCODING 116
SWIDTH 403 0
DWIDTH 7 0
BBX 7 13 0 -3
BITMAP
00
00
20
20
78
20
20
20
20
1C
00
00
00
ENDCHAR
STARTCHAR char117
ENCODING 117
SWIDTH 403 0
DWIDTH 7 0
BBX 7 13 0 -3
BITMAP
00
00
00
00
44
44
44
44
4C
34
00
00
00
ENDCHAR
STARTCHAR char118
ENCODING 118
SWIDTH 403 0
DWIDTH 7 0
BBX 7 13 0 -3
BITMAP
00
00
00
00
44
44
28
28
10
10
00
00
00
ENDCHAR
STARTCHAR char119
ENCODING 119
SWIDTH 403 0
DWIDTH 7 0
BBX 7 13 0 -3
BITMAP
00
00
00
00
44
44
54
54
28
28
00
00
00
ENDCHAR
STARTCHAR char120
ENCODING 120
SWIDTH 403 0
DWIDTH 7 0
BBX 7 13 0 -3
BITMAP
00
00
00
00
44
28
10
10
28
44
00
00
00
ENDCHAR
STARTCHAR char121
ENCODING 121
SWIDTH 403 0
DWIDTH 7 0
BBX 7 13 0 -3
BITMAP
00
00
00
00
44
44
44
44
4C
34
04
04
38
ENDCHAR
STARTCHAR char122
ENCODING 122
SWIDTH 403 0
DWIDTH 7 0
BBX 7 13 0 -3
BITMAP
00
00
00
00
7C
08
10
20
40
7C
00
00
00
ENDCHAR
STARTCHAR char123
ENCODING 123
SWIDTH 403 0
DWIDTH 7 0
BBX 7 13 0 -3
BITMAP
00
0C
10
10
10
10
60
10
10
10
10
0C
00
ENDCHAR
STARTCHAR char124
ENCODING 124
SWIDTH 403 0
DWIDTH 7 0
BBX 7 13 0 -3
BITMAP
00
10
10
10
10
10
10
10
10
10
10
10
00
ENDCHAR
STARTCHAR char125
ENCODING 125
SWIDTH 403 0
DWIDTH 7 0
BBX 7 13 0 -3
BITMAP
00
60
10
10
10
10
0C
10
10
10
10
60
00
ENDCHAR
STARTCHAR char126
ENCODING 126
SWIDTH 403 0
DWIDTH 7 0
BBX 7 13 0 -3
BITMAP
00
00
24
54
48
00
00
00
00
00
00
00
00
ENDCHAR
STARTCHAR char161
ENCODING 161
SWIDTH 403 0
DWIDTH 7 0
BBX 7 13 0 -3
BITMAP
00
00
10
00
10
10
10
10
10
10
00
00
00
ENDCHAR
STARTCHAR char162
ENCODING 162
SWIDTH 403 0
DWIDTH 7 0
BBX 7 13 0 -3
BITMAP
00
00
00
10
38
54
50
50
54
38
10
00
00
ENDCHAR
STARTCHAR char163
ENCODING 163
SWIDTH 403 0
DWIDTH 7 0
BBX 7 13 0 -3
BITMAP
00
00
18
20
20
78
20
20
40
7C
00
00
00
ENDCHAR
STARTCHAR char164
ENCODING 164
SWIDTH 403 0
DWIDTH 7 0
BBX 7 13 0 -3
BITMAP
00
00
00
00
44
38
28
28
38
44
00
00
00
ENDCHAR
STARTCHAR char165
ENCODING 165
SWIDTH 403 0
DWIDTH 7 0
BBX 7 13 0 -3
BITMAP
00
00
44
44
44
28
10
7C
10
10
00
00
00
ENDCHAR
STARTCHAR char166
ENCODING 166
SWIDTH 403 0
DWIDTH 7 0
BBX 7 13 0 -3
BITMAP
00
10
10
10
10
10
00
10
10
10
10
00
00
ENDCHAR
STARTCHAR char167
ENCODING 167
SWIDTH 403 0
DWIDTH 7 0
BBX 7 13 0 -3
BITMAP
00
38
44
40
30
28
18
04
44
38
00
00
00
ENDCHAR
STARTCHAR char168
ENCODING 168
SWIDTH 403 0
DWIDTH 7 0
BBX 7 13 0 -3
BITMAP
00
28
00
00
00
00
00
00
00
00
00
00
00
ENDCHAR
STARTCHAR char169
ENCODING 169
SWIDTH 403 0
DWIDTH 7 0
BBX 7 13 0 -3
BITMAP
00
00
38
44
54
64
64
54
44
38
00
00
00
ENDCHAR
STARTCHAR char170
ENCODING 170
SWIDTH 403 0
DWIDTH 7 0
BBX 7 13 0 -3
BITMAP
00
00
30
08
38
48
38
00
00
00
00
00
00
ENDCHAR
STARTCHAR char171
ENCODING 171
SWIDTH 403 0
DWIDTH 7 0
BBX 7 13 0 -3
BITMAP
00
00
00
00
14
28
50
28
14
00
00
00
00
ENDCHAR
STARTCHAR char172
ENCODING 172
SWIDTH 403 0
DWIDTH 7 0
BBX 7 13 0 -3
BITMAP
00
00
00
00
00
00
00
78
08
08
00
00
00
ENDCHAR
STARTCHAR char174
ENCODING 174
SWIDTH 403 0
DWIDTH 7 0
BBX 7 13 0 -3
BITMAP
00
00
38
44
74
6C
74
6C
44
38
00
00
00
ENDCHAR
STARTCHAR char175
ENCODING 175
SWIDTH 403 0
DWIDTH 7 0
BBX 7 13 0 -3
BITMAP
FE
00
00
00
00
00
00
00
00
00
00
00
00
ENDCHAR
STARTCHAR char176
ENCODING 176
SWIDTH 403 0
DWIDTH 7 0
BBX 7 13 0 -3
BITMAP
00
30
48
48
30
00
00
00
00
00
00
00
00
ENDCHAR
STARTCHAR char177
ENCODING 177
SWIDTH 403 0
DWIDTH 7 0
BBX 7 13 0 -3
BITMAP
00
00
00
10
10
7C
10
10
00
7C
00
00
00
ENDCHAR
STARTCHAR char178
ENCODING 178
SWIDTH 403 0
DWIDTH 7 0
BBX 7 13 0 -3
BITMAP
00
70
08
10
20
78
00
00
00
00
00
00
00
ENDCHAR
STARTCHAR char179
ENCODING 179
SWIDTH 403 0
DWIDTH 7 0
BBX 7 13 0 -3
BITMAP
00
70
08
30
08
70
00
00
00
00
00
00
00
ENDCHAR
STARTCHAR char180
ENCODING 180
SWIDTH 403 0
DWIDTH 7 0
BBX 7 13 0 -3
BITMAP
00
08
10
00
00
00
00
00
00
00
00
00
00
ENDCHAR
STARTCHAR char181
ENCODING 181
SWIDTH 403 0
DWIDTH 7 0
BBX 7 13 0 -3
BITMAP
00
00
00
00
24
24
24
24
34
28
20
40
00
ENDCHAR
STARTCHAR char182
ENCODING 182
SWIDTH 403 0
DWIDTH 7 0
BBX 7 13 0 -3
BITMAP
00
00
3C
74
74
34
14
14
14
14
14
00
00
ENDCHAR
STARTCHAR char183
ENCODING 183
SWIDTH 403 0
DWIDTH 7 0
BBX 7 13 0 -3
BITMAP
00
00
00
00
00
10
38
10
00
00
00
00
00
ENDCHAR
STARTCHAR char184
ENCODING 184
SWIDTH 403 0
DWIDTH 7 0
BBX 7 13 0 -3
BITMAP
00
00
00
00
00
00
00
00
00
30
10
20
00
ENDCHAR
STARTCHAR char185
ENCODING 185
SWIDTH 403 0
DWIDTH 7 0
BBX 7 13 0 -3
BITMAP
00
20
60
20
20
00
00
00
00
00
00
00
00
ENDCHAR
STARTCHAR char186
ENCODING 186
SWIDTH 403 0
DWIDTH 7 0
BBX 7 13 0 -3
BITMAP
00
30
48
48
48
30
00
00
00
00
00
00
00
ENDCHAR
STARTCHAR char187
ENCODING 187
SWIDTH 403 0
DWIDTH 7 0
BBX 7 13 0 -3
BITMAP
00
00
00
00
50
28
14
28
50
00
00
00
00
ENDCHAR
STARTCHAR char188
ENCODING 188
SWIDTH 403 0
DWIDTH 7 0
BBX 7 13 0 -3
BITMAP
00
00
20
60
24
28
14
2C
54
1C
04
00
00
ENDCHAR
STARTCHAR char189
ENCODING 189
SWIDTH 403 0
DWIDTH 7 0
BBX 7 13 0 -3
BITMAP
00
00
20
60
24
28
10
28
44
08
0C
00
00
ENDCHAR
STARTCHAR char190
ENCODING 190
SWIDTH 403 0
DWIDTH 7 0
BBX 7 13 0 -3
BITMAP
00
20
10
20
14
28
14
2C
54
1C
04
00
00
ENDCHAR
STARTCHAR char191
ENCODING 191
SWIDTH 403 0
DWIDTH 7 0
BBX 7 13 0 -3
BITMAP
00
00
10
10
00
10
20
40
44
38
00
00
00
ENDCHAR
STARTCHAR char192
ENCODING 192
SWIDTH 403 0
DWIDTH 7 0
BBX 7 13 0 -3
BITMAP
20
10
00
38
44
44
7C
44
44
44
00
00
00
ENDCHAR
STARTCHAR char193
ENCODING 193
SWIDTH 403 0
DWIDTH 7 0
BBX 7 13 0 -3
BITMAP
08
10
00
38
44
44
7C
44
44
44
00
00
00
ENDCHAR
STARTCHAR char194
ENCODING 194
SWIDTH 403 0
DWIDTH 7 0
BBX 7 13 0 -3
BITMAP
10
28
00
38
44
44
7C
44
44
44
00
00
00
ENDCHAR
STARTCHAR char195
ENCODING 195
SWIDTH 403 0
DWIDTH 7 0
BBX 7 13 0 -3
BITMAP
34
58
00
38
44
44
7C
44
44
44
00
00
00
ENDCHAR
STARTCHAR char196
ENCODING 196
SWIDTH 403 0
DWIDTH 7 0
BBX 7 13 0 -3
BITMAP
00
28
00
38
44
44
7C
44
44
44
00
00
00
ENDCHAR
STARTCHAR char197
ENCODING 197
SWIDTH 403 0
DWIDTH 7 0
BBX 7 13 0 -3
BITMAP
10
28
10
38
44
44
7C
44
44
44
00
00
00
ENDCHAR
STARTCHAR char198
ENCODING 198
SWIDTH 403 0
DWIDTH 7 0
BBX 7 13 0 -3
BITMAP
00
00
1C
28
28
4C
78
48
48
4C
00
00
00
ENDCHAR
STARTCHAR char199
ENCODING 199
SWIDTH 403 0
DWIDTH 7 0
BBX 7 13 0 -3
BITMAP
00
00
38
44
40
40
40
40
44
38
10
10
20
ENDCHAR
STARTCHAR char200
ENCODING 200
SWIDTH 403 0
DWIDTH 7 0
BBX 7 13 0 -3
BITMAP
20
10
00
7C
40
40
78
40
40
7C
00
00
00
ENDCHAR
STARTCHAR char200
ENCODING 201
SWIDTH 403 0
DWIDTH 7 0
BBX 7 13 0 -3
BITMAP
08
10
00
7C
40
40
78
40
40
7C
00
00
00
ENDCHAR
STARTCHAR char202
ENCODING 202
SWIDTH 403 0
DWIDTH 7 0
BBX 7 13 0 -3
BITMAP
10
28
00
7C
40
40
78
40
40
7C
00
00
00
ENDCHAR
STARTCHAR char203
ENCODING 203
SWIDTH 403 0
DWIDTH 7 0
BBX 7 13 0 -3
BITMAP
00
28
00
7C
40
40
78
40
40
7C
00
00
00
ENDCHAR
STARTCHAR char204
ENCODING 204
SWIDTH 403 0
DWIDTH 7 0
BBX 7 13 0 -3
BITMAP
20
10
00
38
10
10
10
10
10
38
00
00
00
ENDCHAR
STARTCHAR char205
ENCODING 205
SWIDTH 403 0
DWIDTH 7 0
BBX 7 13 0 -3
BITMAP
08
10
00
38
10
10
10
10
10
38
00
00
00
ENDCHAR
STARTCHAR char206
ENCODING 206
SWIDTH 403 0
DWIDTH 7 0
BBX 7 13 0 -3
BITMAP
10
28
00
38
10
10
10
10
10
38
00
00
00
ENDCHAR
STARTCHAR char207
ENCODING 207
SWIDTH 403 0
DWIDTH 7 0
BBX 7 13 0 -3
BITMAP
00
28
00
38
10
10
10
10
10
38
00
00
00
ENDCHAR
STARTCHAR char208
ENCODING 208
SWIDTH 403 0
DWIDTH 7 0
BBX 7 13 0 -3
BITMAP
00
00
00
38
24
24
74
24
24
38
00
00
00
ENDCHAR
STARTCHAR char209
ENCODING 209
SWIDTH 403 0
DWIDTH 7 0
BBX 7 13 0 -3
BITMAP
34
58
00
44
64
64
54
54
4C
44
00
00
00
ENDCHAR
STARTCHAR char210
ENCODING 210
SWIDTH 403 0
DWIDTH 7 0
BBX 7 13 0 -3
BITMAP
20
10
00
38
44
44
44
44
44
38
00
00
00
ENDCHAR
STARTCHAR char211
ENCODING 211
SWIDTH 403 0
DWIDTH 7 0
BBX 7 13 0 -3
BITMAP
08
10
00
38
44
44
44
44
44
38
00
00
00
ENDCHAR
STARTCHAR char212
ENCODING 212
SWIDTH 403 0
DWIDTH 7 0
BBX 7 13 0 -3
BITMAP
10
28
00
38
44
44
44
44
44
38
00
00
00
ENDCHAR
STARTCHAR char213
ENCODING 213
SWIDTH 403 0
DWIDTH 7 0
BBX 7 13 0 -3
BITMAP
34
58
00
38
44
44
44
44
44
38
00
00
00
ENDCHAR
STARTCHAR char214
ENCODING 214
SWIDTH 403 0
DWIDTH 7 0
BBX 7 13 0 -3
BITMAP
00
28
00
38
44
44
44
44
44
38
00
00
00
ENDCHAR
STARTCHAR char215
ENCODING 215
SWIDTH 403 0
DWIDTH 7 0
BBX 7 13 0 -3
BITMAP
00
00
00
00
44
28
10
28
44
00
00
00
00
ENDCHAR
STARTCHAR char216
ENCODING 216
SWIDTH 403 0
DWIDTH 7 0
BBX 7 13 0 -3
BITMAP
00
00
34
48
4C
54
54
64
24
58
00
00
00
ENDCHAR
STARTCHAR char217
ENCODING 217
SWIDTH 403 0
DWIDTH 7 0
BBX 7 13 0 -3
BITMAP
20
10
00
44
44
44
44
44
44
38
00
00
00
ENDCHAR
STARTCHAR char218
ENCODING 218
SWIDTH 403 0
DWIDTH 7 0
BBX 7 13 0 -3
BITMAP
08
10
00
44
44
44
44
44
44
38
00
00
00
ENDCHAR
STARTCHAR char219
ENCODING 219
SWIDTH 403 0
DWIDTH 7 0
BBX 7 13 0 -3
BITMAP
10
28
00
44
44
44
44
44
44
38
00
00
00
ENDCHAR
STARTCHAR char220
ENCODING 220
SWIDTH 403 0
DWIDTH 7 0
BBX 7 13 0 -3
BITMAP
00
28
00
44
44
44
44
44
44
38
00
00
00
ENDCHAR
STARTCHAR char221
ENCODING 221
SWIDTH 403 0
DWIDTH 7 0
BBX 7 13 0 -3
BITMAP
08
10
00
44
44
44
28
10
10
10
00
00
00
ENDCHAR
STARTCHAR char222
ENCODING 222
SWIDTH 403 0
DWIDTH 7 0
BBX 7 13 0 -3
BITMAP
00
00
40
40
78
44
44
78
40
40
00
00
00
ENDCHAR
STARTCHAR char223
ENCODING 223
SWIDTH 403 0
DWIDTH 7 0
BBX 7 13 0 -3
BITMAP
00
18
24
24
38
24
24
24
24
38
40
00
00
ENDCHAR
STARTCHAR char224
ENCODING 224
SWIDTH 403 0
DWIDTH 7 0
BBX 7 13 0 -3
BITMAP
00
20
10
00
38
04
3C
44
4C
34
00
00
00
ENDCHAR
STARTCHAR char225
ENCODING 225
SWIDTH 403 0
DWIDTH 7 0
BBX 7 13 0 -3
BITMAP
00
08
10
00
38
04
3C
44
4C
34
00
00
00
ENDCHAR
STARTCHAR char226
ENCODING 226
SWIDTH 403 0
DWIDTH 7 0
BBX 7 13 0 -3
BITMAP
00
10
28
00
38
04
3C
44
4C
34
00
00
00
ENDCHAR
STARTCHAR char227
ENCODING 227
SWIDTH 403 0
DWIDTH 7 0
BBX 7 13 0 -3
BITMAP
00
34
58
00
38
04
3C
44
4C
34
00
00
00
ENDCHAR
STARTCHAR char228
ENCODING 228
SWIDTH 403 0
DWIDTH 7 0
BBX 7 13 0 -3
BITMAP
00
28
00
00
38
04
3C
44
4C
34
00
00
00
ENDCHAR
STARTCHAR char229
ENCODING 229
SWIDTH 403 0
DWIDTH 7 0
BBX 7 13 0 -3
BITMAP
10
28
10
00
38
04
3C
44
4C
34
00
00
00
ENDCHAR
STARTCHAR char230
ENCODING 230
SWIDTH 403 0
DWIDTH 7 0
BBX 7 13 0 -3
BITMAP
00
00
00
00
28
14
3C
50
54
28
00
00
00
ENDCHAR
STARTCHAR char231
ENCODING 231
SWIDTH 403 0
DWIDTH 7 0
BBX 7 13 0 -3
BITMAP
00
00
00
00
38
44
40
40
44
38
10
10
20
ENDCHAR
STARTCHAR char232
ENCODING 232
SWIDTH 403 0
DWIDTH 7 0
BBX 7 13 0 -3
BITMAP
00
20
10
00
38
44
7C
40
44
38
00
00
00
ENDCHAR
STARTCHAR char233
ENCODING 233
SWIDTH 403 0
DWIDTH 7 0
BBX 7 13 0 -3
BITMAP
00
08
10
00
38
44
7C
40
44
38
00
00
00
ENDCHAR
STARTCHAR char234
ENCODING 234
SWIDTH 403 0
DWIDTH 7 0
BBX 7 13 0 -3
BITMAP
00
10
28
00
38
44
7C
40
44
38
00
00
00
ENDCHAR
STARTCHAR char235
ENCODING 235
SWIDTH 403 0
DWIDTH 7 0
BBX 7 13 0 -3
BITMAP
00
28
00
00
38
44
7C
40
44
38
00
00
00
ENDCHAR
STARTCHAR char236
ENCODING 236
SWIDTH 403 0
DWIDTH 7 0
BBX 7 13 0 -3
BITMAP
00
20
10
00
30
10
10
10
10
38
00
00
00
ENDCHAR
STARTCHAR char237
ENCODING 237
SWIDTH 403 0
DWIDTH 7 0
BBX 7 13 0 -3
BITMAP
00
08
10
00
30
10
10
10
10
38
00
00
00
ENDCHAR
STARTCHAR char238
ENCODING 238
SWIDTH 403 0
DWIDTH 7 0
BBX 7 13 0 -3
BITMAP
00
10
28
00
30
10
10
10
10
38
00
00
00
ENDCHAR
STARTCHAR char239
ENCODING 239
SWIDTH 403 0
DWIDTH 7 0
BBX 7 13 0 -3
BITMAP
00
28
00
00
30
10
10
10
10
38
00
00
00
ENDCHAR
STARTCHAR char240
ENCODING 240
SWIDTH 403 0
DWIDTH 7 0
BBX 7 13 0 -3
BITMAP
00
34
08
14
04
3C
44
44
44
38
00
00
00
ENDCHAR
STARTCHAR char241
ENCODING 241
SWIDTH 403 0
DWIDTH 7 0
BBX 7 13 0 -3
BITMAP
00
34
58
00
58
64
44
44
44
44
00
00
00
ENDCHAR
STARTCHAR char242
ENCODING 242
SWIDTH 403 0
DWIDTH 7 0
BBX 7 13 0 -3
BITMAP
00
20
10
00
38
44
44
44
44
38
00
00
00
ENDCHAR
STARTCHAR char243
ENCODING 243
SWIDTH 403 0
DWIDTH 7 0
BBX 7 13 0 -3
BITMAP
00
08
10
00
38
44
44
44
44
38
00
00
00
ENDCHAR
STARTCHAR char244
ENCODING 244
SWIDTH 403 0
DWIDTH 7 0
BBX 7 13 0 -3
BITMAP
00
10
28
00
38
44
44
44
44
38
00
00
00
ENDCHAR
STARTCHAR char245
ENCODING 245
SWIDTH 403 0
DWIDTH 7 0
BBX 7 13 0 -3
BITMAP
00
34
58
00
38
44
44
44
44
38
00
00
00
ENDCHAR
STARTCHAR char246
ENCODING 246
SWIDTH 403 0
DWIDTH 7 0
BBX 7 13 0 -3
BITMAP
00
28
00
00
38
44
44
44
44
38
00
00
00
ENDCHAR
STARTCHAR char247
ENCODING 247
SWIDTH 403 0
DWIDTH 7 0
BBX 7 13 0 -3
BITMAP
00
00
00
00
10
00
7C
00
10
00
00
00
00
ENDCHAR
STARTCHAR char248
ENCODING 248
SWIDTH 403 0
DWIDTH 7 0
BBX 7 13 0 -3
BITMAP
00
00
00
04
38
4C
54
54
64
38
40
00
00
ENDCHAR
STARTCHAR char249
ENCODING 249
SWIDTH 403 0
DWIDTH 7 0
BBX 7 13 0 -3
BITMAP
00
20
10
00
44
44
44
44
4C
34
00
00
00
ENDCHAR
STARTCHAR char250
ENCODING 250
SWIDTH 403 0
DWIDTH 7 0
BBX 7 13 0 -3
BITMAP
00
08
10
00
44
44
44
44
4C
34
00
00
00
ENDCHAR
STARTCHAR char251
ENCODING 251
SWIDTH 403 0
DWIDTH 7 0
BBX 7 13 0 -3
BITMAP
00
10
28
00
44
44
44
44
4C
34
00
00
00
ENDCHAR
STARTCHAR char252
ENCODING 252
SWIDTH 403 0
DWIDTH 7 0
BBX 7 13 0 -3
BITMAP
00
28
00
00
44
44
44
44
4C
34
00
00
00
ENDCHAR
STARTCHAR char253
ENCODING 253
SWIDTH 403 0
DWIDTH 7 0
BBX 7 13 0 -3
BITMAP
00
08
10
00
44
44
44
44
4C
34
04
04
38
ENDCHAR
STARTCHAR char254
ENCODING 254
SWIDTH 403 0
DWIDTH 7 0
BBX 7 13 0 -3
BITMAP
00
00
40
40
78
44
44
44
44
78
40
40
00
ENDCHAR
STARTCHAR char255
ENCODING 255
SWIDTH 403 0
DWIDTH 7 0
BBX 7 13 0 -3
BITMAP
00
00
28
00
44
44
44
44
4C
34
04
04
38
ENDCHAR
STARTCHAR char402
ENCODING 402
SWIDTH 403 0
DWIDTH 7 0
BBX 7 13 0 -3
BITMAP
00
0C
10
10
3C
10
10
10
10
10
60
00
00
ENDCHAR
STARTCHAR char955
ENCODING 955
SWIDTH 403 0
DWIDTH 7 0
BBX 7 13 0 -3
BITMAP
00
00
60
10
10
10
28
28
44
44
00
00
00
ENDCHAR
STARTCHAR char960
ENCODING 960
SWIDTH 403 0
DWIDTH 7 0
BBX 7 13 0 -3
BITMAP
00
00
00
00
7C
28
28
28
28
24
00
00
00
ENDCHAR
STARTCHAR char961
ENCODING 961
SWIDTH 403 0
DWIDTH 7 0
BBX 7 13 0 -3
BITMAP
00
00
00
00
38
44
44
44
64
58
40
40
40
ENDCHAR
STARTCHAR char962
ENCODING 962
SWIDTH 403 0
DWIDTH 7 0
BBX 7 13 0 -3
BITMAP
00
00
00
00
38
44
40
40
40
3C
04
04
08
ENDCHAR
STARTCHAR char963
ENCODING 963
SWIDTH 403 0
DWIDTH 7 0
BBX 7 13 0 -3
BITMAP
00
00
00
00
3C
48
44
44
44
38
00
00
00
ENDCHAR
STARTCHAR char964
ENCODING 964
SWIDTH 403 0
DWIDTH 7 0
BBX 7 13 0 -3
BITMAP
00
00
00
00
7C
10
10
10
10
0C
00
00
00
ENDCHAR
STARTCHAR char965
ENCODING 965
SWIDTH 403 0
DWIDTH 7 0
BBX 7 13 0 -3
BITMAP
00
00
00
00
48
44
44
44
48
30
00
00
00
ENDCHAR
STARTCHAR char966
ENCODING 966
SWIDTH 403 0
DWIDTH 7 0
BBX 7 13 0 -3
BITMAP
00
00
00
00
18
54
54
54
54
38
10
10
10
ENDCHAR
STARTCHAR char1024
ENCODING 1024
SWIDTH 403 0
DWIDTH 7 0
BBX 7 13 0 -3
BITMAP
20
10
00
7C
40
40
78
40
40
7C
00
00
00
ENDCHAR
STARTCHAR char1024
ENCODING 1025
SWIDTH 403 0
DWIDTH 7 0
BBX 7 13 0 -3
BITMAP
00
28
00
7C
40
40
78
40
40
7C
00
00
00
ENDCHAR
STARTCHAR char1026
ENCODING 1026
SWIDTH 403 0
DWIDTH 7 0
BBX 7 13 0 -3
BITMAP
00
00
78
20
2C
34
24
24
24
24
04
18
00
ENDCHAR
STARTCHAR char1027
ENCODING 1027
SWIDTH 403 0
DWIDTH 7 0
BBX 7 13 0 -3
BITMAP
08
10
00
3C
20
20
20
20
20
20
00
00
00
ENDCHAR
STARTCHAR char1028
ENCODING 1028
SWIDTH 403 0
DWIDTH 7 0
BBX 7 13 0 -3
BITMAP
00
00
18
24
40
78
40
40
24
18
00
00
00
ENDCHAR
STARTCHAR char1029
ENCODING 1029
SWIDTH 403 0
DWIDTH 7 0
BBX 7 13 0 -3
BITMAP
00
00
38
44
40
38
04
04
44
38
00
00
00
ENDCHAR
STARTCHAR char1030
ENCODING 1030
SWIDTH 403 0
DWIDTH 7 0
BBX 7 13 0 -3
BITMAP
00
00
38
10
10
10
10
10
10
38
00
00
00
ENDCHAR
STARTCHAR char1031
ENCODING 1031
SWIDTH 403 0
DWIDTH 7 0
BBX 7 13 0 -3
BITMAP
28
00
38
10
10
10
10
10
10
38
00
00
00
ENDCHAR
STARTCHAR char1032
ENCODING 1032
SWIDTH 403 0
DWIDTH 7 0
BBX 7 13 0 -3
BITMAP
00
00
1C
08
08
08
08
08
08
30
00
00
00
ENDCHAR
STARTCHAR char1033
ENCODING 1033
SWIDTH 403 0
DWIDTH 7 0
BBX 7 13 0 -3
BITMAP
00
00
70
50
50
58
54
54
54
58
00
00
00
ENDCHAR
STARTCHAR char1034
ENCODING 1034
SWIDTH 403 0
DWIDTH 7 0
BBX 7 13 0 -3
BITMAP
00
00
50
50
50
78
54
54
54
58
00
00
00
ENDCHAR
STARTCHAR char1035
ENCODING 1035
SWIDTH 403 0
DWIDTH 7 0
BBX 7 13 0 -3
BITMAP
00
00
78
20
20
2C
34
24
24
24
00
00
00
ENDCHAR
STARTCHAR char1036
ENCODING 1036
SWIDTH 403 0
DWIDTH 7 0
BBX 7 13 0 -3
BITMAP
08
10
44
48
50
70
48
48
44
44
00
00
00
ENDCHAR
STARTCHAR char1037
ENCODING 1037
SWIDTH 403 0
DWIDTH 7 0
BBX 7 13 0 -3
BITMAP
20
10
44
4C
4C
54
54
64
64
44
00
00
00
ENDCHAR
STARTCHAR char1038
ENCODING 1038
SWIDTH 403 0
DWIDTH 7 0
BBX 7 13 0 -3
BITMAP
28
10
44
44
44
28
28
10
10
60
00
00
00
ENDCHAR
STARTCHAR char1039
ENCODING 1039
SWIDTH 403 0
DWIDTH 7 0
BBX 7 13 0 -3
BITMAP
00
00
44
44
44
44
44
44
44
7C
10
10
00
ENDCHAR
STARTCHAR char1040
ENCODING 1040
SWIDTH 403 0
DWIDTH 7 0
BBX 7 13 0 -3
BITMAP
00
00
10
10
28
28
38
44
44
44
00
00
00
ENDCHAR
STARTCHAR char1041
ENCODING 1041
SWIDTH 403 0
DWIDTH 7 0
BBX 7 13 0 -3
BITMAP
00
00
78
40
40
78
44
44
44
78
00
00
00
ENDCHAR
STARTCHAR char1042
ENCODING 1042
SWIDTH 403 0
DWIDTH 7 0
BBX 7 13 0 -3
BITMAP
00
00
78
44
44
78
44
44
44
78
00
00
00
ENDCHAR
STARTCHAR char1043
ENCODING 1043
SWIDTH 403 0
DWIDTH 7 0
BBX 7 13 0 -3
BITMAP
00
00
3C
20
20
20
20
20
20
20
00
00
00
ENDCHAR
STARTCHAR char1044
ENCODING 1044
SWIDTH 403 0
DWIDTH 7 0
BBX 7 13 0 -3
BITMAP
00
00
38
28
28
28
28
28
48
7C
44
00
00
ENDCHAR
STARTCHAR char1045
ENCODING 1045
SWIDTH 403 0
DWIDTH 7 0
BBX 7 13 0 -3
BITMAP
00
00
7C
40
40
70
40
40
40
7C
00
00
00
ENDCHAR
STARTCHAR char1046
ENCODING 1046
SWIDTH 403 0
DWIDTH 7 0
BBX 7 13 0 -3
BITMAP
00
00
54
54
54
38
38
54
54
54
00
00
00
ENDCHAR
STARTCHAR char1047
ENCODING 1047
SWIDTH 403 0
DWIDTH 7 0
BBX 7 13 0 -3
BITMAP
00
00
78
44
04
18
04
04
44
38
00
00
00
ENDCHAR
STARTCHAR char1048
ENCODING 1048
SWIDTH 403 0
DWIDTH 7 0
BBX 7 13 0 -3
BITMAP
00
00
44
4C
4C
54
54
64
64
44
00
00
00
ENDCHAR
STARTCHAR char1049
ENCODING 1049
SWIDTH 403 0
DWIDTH 7 0
BBX 7 13 0 -3
BITMAP
28
10
44
4C
4C
54
54
64
64
44
00
00
00
ENDCHAR
STARTCHAR char1050
ENCODING 1050
SWIDTH 403 0
DWIDTH 7 0
BBX 7 13 0 -3
BITMAP
00
00
44
48
50
70
48
48
44
44
00
00
00
ENDCHAR
STARTCHAR char1051
ENCODING 1051
SWIDTH 403 0
DWIDTH 7 0
BBX 7 13 0 -3
BITMAP
00
00
3C
24
24
24
24
24
24
44
00
00
00
ENDCHAR
STARTCHAR char1052
ENCODING 1052
SWIDTH 403 0
DWIDTH 7 0
BBX 7 13 0 -3
BITMAP
00
00
44
6C
54
54
44
44
44
44
00
00
00
ENDCHAR
STARTCHAR char1053
ENCODING 1053
SWIDTH 403 0
DWIDTH 7 0
BBX 7 13 0 -3
BITMAP
00
00
44
44
44
7C
44
44
44
44
00
00
00
ENDCHAR
STARTCHAR char1054
ENCODING 1054
SWIDTH 403 0
DWIDTH 7 0
BBX 7 13 0 -3
BITMAP
00
00
38
44
44
44
44
44
44
38
00
00
00
ENDCHAR
STARTCHAR char1055
ENCODING 1055
SWIDTH 403 0
DWIDTH 7 0
BBX 7 13 0 -3
BITMAP
00
00
7C
44
44
44
44
44
44
44
00
00
00
ENDCHAR
STARTCHAR char1056
ENCODING 1056
SWIDTH 403 0
DWIDTH 7 0
BBX 7 13 0 -3
BITMAP
00
00
78
44
44
44
78
40
40
40
00
00
00
ENDCHAR
STARTCHAR char1057
ENCODING 1057
SWIDTH 403 0
DWIDTH 7 0
BBX 7 13 0 -3
BITMAP
00
00
38
44
40
40
40
40
44
38
00
00
00
ENDCHAR
STARTCHAR char1058
ENCODING 1058
SWIDTH 403 0
DWIDTH 7 0
BBX 7 13 0 -3
BITMAP
00
00
7C
10
10
10
10
10
10
10
00
00
00
ENDCHAR
STARTCHAR char1059
ENCODING 1059
SWIDTH 403 0
DWIDTH 7 0
BBX 7 13 0 -3
BITMAP
00
00
44
44
44
44
28
28
10
60
00
00
00
ENDCHAR
STARTCHAR char1060
ENCODING 1060
SWIDTH 403 0
DWIDTH 7 0
BBX 7 13 0 -3
BITMAP
00
00
10
38
54
54
54
54
38
10
00
00
00
ENDCHAR
STARTCHAR char1061
ENCODING 1061
SWIDTH 403 0
DWIDTH 7 0
BBX 7 13 0 -3
BITMAP
00
00
44
44
28
10
10
28
44
44
00
00
00
ENDCHAR
STARTCHAR char1062
ENCODING 1062
SWIDTH 403 0
DWIDTH 7 0
BBX 7 13 0 -3
BITMAP
00
00
48
48
48
48
48
48
48
7C
04
00
00
ENDCHAR
STARTCHAR char1063
ENCODING 1063
SWIDTH 403 0
DWIDTH 7 0
BBX 7 13 0 -3
BITMAP
00
00
44
44
44
44
3C
04
04
04
00
00
00
ENDCHAR
STARTCHAR char1064
ENCODING 1064
SWIDTH 403 0
DWIDTH 7 0
BBX 7 13 0 -3
BITMAP
00
00
54
54
54
54
54
54
54
7C
00
00
00
ENDCHAR
STARTCHAR char1065
ENCODING 1065
SWIDTH 403 0
DWIDTH 7 0
BBX 7 13 0 -3
BITMAP
00
00
54
54
54
54
54
54
54
7E
02
02
00
ENDCHAR
STARTCHAR char1066
ENCODING 1066
SWIDTH 403 0
DWIDTH 7 0
BBX 7 13 0 -3
BITMAP
00
00
60
20
20
38
24
24
24
38
00
00
00
ENDCHAR
STARTCHAR char1067
ENCODING 1067
SWIDTH 403 0
DWIDTH 7 0
BBX 7 13 0 -3
BITMAP
00
00
44
44
44
64
54
54
54
64
00
00
00
ENDCHAR
STARTCHAR char1068
ENCODING 1068
SWIDTH 403 0
DWIDTH 7 0
BBX 7 13 0 -3
BITMAP
00
00
40
40
40
78
44
44
44
78
00
00
00
ENDCHAR
STARTCHAR char1069
ENCODING 1069
SWIDTH 403 0
DWIDTH 7 0
BBX 7 13 0 -3
BITMAP
00
00
30
48
04
3C
04
04
48
30
00
00
00
ENDCHAR
STARTCHAR char1070
ENCODING 1070
SWIDTH 403 0
DWIDTH 7 0
BBX 7 13 0 -3
BITMAP
00
00
48
54
54
74
54
54
54
48
00
00
00
ENDCHAR
STARTCHAR char1071
ENCODING 1071
SWIDTH 403 0
DWIDTH 7 0
BBX 7 13 0 -3
BITMAP
00
00
3C
44
44
3C
24
24
44
44
00
00
00
ENDCHAR
STARTCHAR char1072
ENCODING 1072
SWIDTH 403 0
DWIDTH 7 0
BBX 7 13 0 -3
BITMAP
00
00
00
00
38
04
3C
44
4C
34
00
00
00
ENDCHAR
STARTCHAR char1073
ENCODING 1073
SWIDTH 403 0
DWIDTH 7 0
BBX 7 13 0 -3
BITMAP
00
04
38
40
58
64
44
44
44
38
00
00
00
ENDCHAR
STARTCHAR char1074
ENCODING 1074
SWIDTH 403 0
DWIDTH 7 0
BBX 7 13 0 -3
BITMAP
00
00
00
00
78
44
78
44
44
78
00
00
00
ENDCHAR
STARTCHAR char1075
ENCODING 1075
SWIDTH 403 0
DWIDTH 7 0
BBX 7 13 0 -3
BITMAP
00
00
00
00
3C
20
20
20
20
20
00
00
00
ENDCHAR
STARTCHAR char1076
ENCODING 1076
SWIDTH 403 0
DWIDTH 7 0
BBX 7 13 0 -3
BITMAP
00
00
00
00
38
28
28
28
48
7C
44
00
00
ENDCHAR
STARTCHAR char1077
ENCODING 1077
SWIDTH 403 0
DWIDTH 7 0
BBX 7 13 0 -3
BITMAP
00
00
00
00
38
44
7C
40
44
38
00
00
00
ENDCHAR
STARTCHAR char1078
ENCODING 1078
SWIDTH 403 0
DWIDTH 7 0
BBX 7 13 0 -3
BITMAP
00
00
00
00
54
54
38
38
54
54
00
00
00
ENDCHAR
STARTCHAR char1079
ENCODING 1079
SWIDTH 403 0
DWIDTH 7 0
BBX 7 13 0 -3
BITMAP
00
00
00
00
38
44
18
04
44
38
00
00
00
ENDCHAR
STARTCHAR char1080
ENCODING 1080
SWIDTH 403 0
DWIDTH 7 0
BBX 7 13 0 -3
BITMAP
00
00
00
00
4C
4C
54
54
64
64
00
00
00
ENDCHAR
STARTCHAR char1081
ENCODING 1081
SWIDTH 403 0
DWIDTH 7 0
BBX 7 13 0 -3
BITMAP
00
28
10
00
4C
4C
54
54
64
64
00
00
00
ENDCHAR
STARTCHAR char1082
ENCODING 1082
SWIDTH 403 0
DWIDTH 7 0
BBX 7 13 0 -3
BITMAP
00
40
40
40
44
48
50
70
48
44
00
00
00
ENDCHAR
STARTCHAR char1083
ENCODING 1083
SWIDTH 403 0
DWIDTH 7 0
BBX 7 13 0 -3
BITMAP
00
00
00
00
3C
24
24
24
24
44
00
00
00
ENDCHAR
STARTCHAR char1084
ENCODING 1084
SWIDTH 403 0
DWIDTH 7 0
BBX 7 13 0 -3
BITMAP
00
00
00
00
44
6C
6C
54
54
44
00
00
00
ENDCHAR
STARTCHAR char1085
ENCODING 1085
SWIDTH 403 0
DWIDTH 7 0
BBX 7 13 0 -3
BITMAP
00
00
00
00
44
44
44
7C
44
44
00
00
00
ENDCHAR
STARTCHAR char1086
ENCODING 1086
SWIDTH 403 0
DWIDTH 7 0
BBX 7 13 0 -3
BITMAP
00
00
00
00
38
44
44
44
44
38
00
00
00
ENDCHAR
STARTCHAR char1087
ENCODING 1087
SWIDTH 403 0
DWIDTH 7 0
BBX 7 13 0 -3
BITMAP
00
00
00
00
7C
44
44
44
44
44
00
00
00
ENDCHAR
STARTCHAR char1088
ENCODING 1088
SWIDTH 403 0
DWIDTH 7 0
BBX 7 13 0 -3
BITMAP
00
00
00
00
58
64
44
44
64
58
40
40
40
ENDCHAR
STARTCHAR char1089
ENCODING 1089
SWIDTH 403 0
DWIDTH 7 0
BBX 7 13 0 -3
BITMAP
00
00
00
00
38
44
40
40
44
38
00
00
00
ENDCHAR
STARTCHAR char1090
ENCODING 1090
SWIDTH 403 0
DWIDTH 7 0
BBX 7 13 0 -3
BITMAP
00
00
00
00
7C
10
10
10
10
10
00
00
00
ENDCHAR
STARTCHAR char1091
ENCODING 1091
SWIDTH 403 0
DWIDTH 7 0
BBX 7 13 0 -3
BITMAP
00
00
00
00
00
44
44
28
28
10
10
60
00
ENDCHAR
STARTCHAR char1092
ENCODING 1092
SWIDTH 403 0
DWIDTH 7 0
BBX 7 13 0 -3
BITMAP
00
00
10
10
38
54
54
54
54
38
10
10
00
ENDCHAR
STARTCHAR char1093
ENCODING 1093
SWIDTH 403 0
DWIDTH 7 0
BBX 7 13 0 -3
BITMAP
00
00
00
00
44
28
10
10
28
44
00
00
00
ENDCHAR
STARTCHAR char1094
ENCODING 1094
SWIDTH 403 0
DWIDTH 7 0
BBX 7 13 0 -3
BITMAP
00
00
00
00
48
48
48
48
48
7C
04
00
00
ENDCHAR
STARTCHAR char1095
ENCODING 1095
SWIDTH 403 0
DWIDTH 7 0
BBX 7 13 0 -3
BITMAP
00
00
00
00
44
44
44
3C
04
04
00
00
00
ENDCHAR
STARTCHAR char1096
ENCODING 1096
SWIDTH 403 0
DWIDTH 7 0
BBX 7 13 0 -3
BITMAP
00
00
00
00
54
54
54
54
54
7C
00
00
00
ENDCHAR
STARTCHAR char1097
ENCODING 1097
SWIDTH 403 0
DWIDTH 7 0
BBX 7 13 0 -3
BITMAP
00
00
00
00
54
54
54
54
54
7E
02
02
00
ENDCHAR
STARTCHAR char1098
ENCODING 1098
SWIDTH 403 0
DWIDTH 7 0
BBX 7 13 0 -3
BITMAP
00
00
00
00
60
20
38
24
24
38
00
00
00
ENDCHAR
STARTCHAR char1099
ENCODING 1099
SWIDTH 403 0
DWIDTH 7 0
BBX 7 13 0 -3
BITMAP
00
00
00
00
44
44
64
54
54
64
00
00
00
ENDCHAR
STARTCHAR char1100
ENCODING 1100
SWIDTH 403 0
DWIDTH 7 0
BBX 7 13 0 -3
BITMAP
00
00
00
00
20
20
38
24
24
38
00
00
00
ENDCHAR
STARTCHAR char1101
ENCODING 1101
SWIDTH 403 0
DWIDTH 7 0
BBX 7 13 0 -3
BITMAP
00
00
00
00
78
04
3C
04
04
78
00
00
00
ENDCHAR
STARTCHAR char1102
ENCODING 1102
SWIDTH 403 0
DWIDTH 7 0
BBX 7 13 0 -3
BITMAP
00
00
00
00
48
54
74
54
54
48
00
00
00
ENDCHAR
STARTCHAR char1103
ENCODING 1103
SWIDTH 403 0
DWIDTH 7 0
BBX 7 13 0 -3
BITMAP
00
00
00
00
3C
44
44
3C
24
44
00
00
00
ENDCHAR
STARTCHAR char1104
ENCODING 1104
SWIDTH 403 0
DWIDTH 7 0
BBX 7 13 0 -3
BITMAP
00
20
10
00
38
44
7C
40
44
38
00
00
00
ENDCHAR
STARTCHAR char1105
ENCODING 1105
SWIDTH 403 0
DWIDTH 7 0
BBX 7 13 0 -3
BITMAP
00
00
28
00
38
44
7C
40
44
38
00
00
00
ENDCHAR
STARTCHAR char1106
ENCODING 1106
SWIDTH 403 0
DWIDTH 7 0
BBX 7 13 0 -3
BITMAP
00
00
20
78
20
2C
34
24
24
24
04
18
00
ENDCHAR
STARTCHAR char1107
ENCODING 1107
SWIDTH 403 0
DWIDTH 7 0
BBX 7 13 0 -3
BITMAP
00
08
10
00
3C
20
20
20
20
20
00
00
00
ENDCHAR
STARTCHAR char1108
ENCODING 1108
SWIDTH 403 0
DWIDTH 7 0
BBX 7 13 0 -3
BITMAP
00
00
00
00
38
44
70
40
44
38
00
00
00
ENDCHAR
STARTCHAR char1109
ENCODING 1109
SWIDTH 403 0
DWIDTH 7 0
BBX 7 13 0 -3
BITMAP
00
00
00
00
38
44
30
08
44
38
00
00
00
ENDCHAR
STARTCHAR char1110
ENCODING 1110
SWIDTH 403 0
DWIDTH 7 0
BBX 7 13 0 -3
BITMAP
00
00
10
10
00
30
10
10
10
38
00
00
00
ENDCHAR
STARTCHAR char1111
ENCODING 1111
SWIDTH 403 0
DWIDTH 7 0
BBX 7 13 0 -3
BITMAP
00
00
28
00
30
10
10
10
10
38
00
00
00
ENDCHAR
STARTCHAR char1112
ENCODING 1112
SWIDTH 403 0
DWIDTH 7 0
BBX 7 13 0 -3
BITMAP
00
10
10
00
30
10
10
10
10
10
10
10
60
ENDCHAR
STARTCHAR char1113
ENCODING 1113
SWIDTH 403 0
DWIDTH 7 0
BBX 7 13 0 -3
BITMAP
00
00
00
00
70
50
58
54
54
58
00
00
00
ENDCHAR
STARTCHAR char1114
ENCODING 1114
SWIDTH 403 0
DWIDTH 7 0
BBX 7 13 0 -3
BITMAP
00
00
00
00
50
50
78
54
54
58
00
00
00
ENDCHAR
STARTCHAR char1115
ENCODING 1115
SWIDTH 403 0
DWIDTH 7 0
BBX 7 13 0 -3
BITMAP
00
00
20
20
78
20
2C
34
24
24
00
00
00
ENDCHAR
STARTCHAR char1116
ENCODING 1116
SWIDTH 403 0
DWIDTH 7 0
BBX 7 13 0 -3
BITMAP
00
48
50
40
44
48
50
70
48
44
00
00
00
ENDCHAR
STARTCHAR char1117
ENCODING 1117
SWIDTH 403 0
DWIDTH 7 0
BBX 7 13 0 -3
BITMAP
00
20
10
00
4C
4C
54
54
64
64
00
00
00
ENDCHAR
STARTCHAR char1118
ENCODING 1118
SWIDTH 403 0
DWIDTH 7 0
BBX 7 13 0 -3
BITMAP
00
28
10
00
44
44
44
28
28
10
10
60
00
ENDCHAR
STARTCHAR char1119
ENCODING 1119
SWIDTH 403 0
DWIDTH 7 0
BBX 7 13 0 -3
BITMAP
00
00
00
00
44
44
44
44
44
7C
10
10
00
ENDCHAR
STARTCHAR char1120
ENCODING 1120
SWIDTH 403 0
DWIDTH 7 0
BBX 7 13 0 -3
BITMAP
00
00
28
44
44
54
54
54
54
28
00
00
00
ENDCHAR
STARTCHAR char1121
ENCODING 1121
SWIDTH 403 0
DWIDTH 7 0
BBX 7 13 0 -3
BITMAP
00
00
00
00
28
44
44
54
54
28
00
00
00
ENDCHAR
STARTCHAR char1122
ENCODING 1122
SWIDTH 403 0
DWIDTH 7 0
BBX 7 13 0 -3
BITMAP
00
00
20
78
20
38
24
24
24
78
00
00
00
ENDCHAR
STARTCHAR char1123
ENCODING 1123
SWIDTH 403 0
DWIDTH 7 0
BBX 7 13 0 -3
BITMAP
00
00
20
20
78
20
38
24
24
38
00
00
00
ENDCHAR
STARTCHAR char1124
ENCODING 1124
SWIDTH 403 0
DWIDTH 7 0
BBX 7 13 0 -3
BITMAP
00
4C
50
50
78
50
50
50
50
4C
00
00
00
ENDCHAR
STARTCHAR char1125
ENCODING 1125
SWIDTH 403 0
DWIDTH 7 0
BBX 7 13 0 -3
BITMAP
00
00
00
00
4C
50
78
50
50
4C
00
00
00
ENDCHAR
STARTCHAR char1126
ENCODING 1126
SWIDTH 403 0
DWIDTH 7 0
BBX 7 13 0 -3
BITMAP
00
00
10
10
28
28
38
54
54
54
00
00
00
ENDCHAR
STARTCHAR char1127
ENCODING 1127
SWIDTH 403 0
DWIDTH 7 0
BBX 7 13 0 -3
BITMAP
00
00
00
00
10
28
28
7C
54
54
00
00
00
ENDCHAR
STARTCHAR char1128
ENCODING 1128
SWIDTH 403 0
DWIDTH 7 0
BBX 7 13 0 -3
BITMAP
00
00
50
50
68
68
7C
54
54
54
00
00
00
ENDCHAR
STARTCHAR char1129
ENCODING 1129
SWIDTH 403 0
DWIDTH 7 0
BBX 7 13 0 -3
BITMAP
00
00
00
00
50
50
68
78
54
54
00
00
00
ENDCHAR
STARTCHAR char1130
ENCODING 1130
SWIDTH 403 0
DWIDTH 7 0
BBX 7 13 0 -3
BITMAP
00
00
7C
44
28
28
38
54
54
54
00
00
00
ENDCHAR
STARTCHAR char1131
ENCODING 1131
SWIDTH 403 0
DWIDTH 7 0
BBX 7 13 0 -3
BITMAP
00
00
00
00
7C
44
28
38
54
54
00
00
00
ENDCHAR
STARTCHAR char1132
ENCODING 1132
SWIDTH 403 0
DWIDTH 7 0
BBX 7 13 0 -3
BITMAP
00
00
7C
44
68
68
78
54
54
54
00
00
00
ENDCHAR
STARTCHAR char1133
ENCODING 1133
SWIDTH 403 0
DWIDTH 7 0
BBX 7 13 0 -3
BITMAP
00
00
00
00
7C
44
68
78
54
54
00
00
00
ENDCHAR
STARTCHAR char1134
ENCODING 1134
SWIDTH 403 0
DWIDTH 7 0
BBX 7 13 0 -3
BITMAP
28
10
38
44
04
18
04
04
04
38
40
38
00
ENDCHAR
STARTCHAR char1135
ENCODING 1135
SWIDTH 403 0
DWIDTH 7 0
BBX 7 13 0 -3
BITMAP
00
00
28
10
38
44
18
04
04
38
40
38
00
ENDCHAR
STARTCHAR char1136
ENCODING 1136
SWIDTH 403 0
DWIDTH 7 0
BBX 7 13 0 -3
BITMAP
00
00
56
54
54
54
54
54
38
10
00
00
00
ENDCHAR
STARTCHAR char1137
ENCODING 1137
SWIDTH 403 0
DWIDTH 7 0
BBX 7 13 0 -3
BITMAP
00
00
00
00
54
54
54
54
54
38
10
10
00
ENDCHAR
STARTCHAR char1138
ENCODING 1138
SWIDTH 403 0
DWIDTH 7 0
BBX 7 13 0 -3
BITMAP
00
00
38
44
44
7C
44
44
44
38
00
00
00
ENDCHAR
STARTCHAR char1139
ENCODING 1139
SWIDTH 403 0
DWIDTH 7 0
BBX 7 13 0 -3
BITMAP
00
00
00
00
38
44
7C
44
44
38
00
00
00
ENDCHAR
STARTCHAR char1140
ENCODING 1140
SWIDTH 403 0
DWIDTH 7 0
BBX 7 13 0 -3
BITMAP
00
00
46
44
44
28
28
28
10
10
00
00
00
ENDCHAR
STARTCHAR char1141
ENCODING 1141
SWIDTH 403 0
DWIDTH 7 0
BBX 7 13 0 -3
BITMAP
00
00
00
00
44
44
28
28
10
10
00
00
00
ENDCHAR
STARTCHAR char1142
ENCODING 1142
SWIDTH 403 0
DWIDTH 7 0
BBX 7 13 0 -3
BITMAP
50
28
00
46
44
28
28
28
10
10
00
00
00
ENDCHAR
STARTCHAR char1143
ENCODING 1143
SWIDTH 403 0
DWIDTH 7 0
BBX 7 13 0 -3
BITMAP
00
50
28
00
44
44
28
28
10
10
00
00
00
ENDCHAR
STARTCHAR char1144
ENCODING 1144
SWIDTH 403 0
DWIDTH 7 0
BBX 7 13 0 -3
BITMAP
00
00
44
44
28
10
38
54
44
38
00
00
00
ENDCHAR
STARTCHAR char1145
ENCODING 1145
SWIDTH 403 0
DWIDTH 7 0
BBX 7 13 0 -3
BITMAP
00
00
00
00
44
44
38
44
44
38
00
00
00
ENDCHAR
STARTCHAR char1146
ENCODING 1146
SWIDTH 403 0
DWIDTH 7 0
BBX 7 13 0 -3
BITMAP
00
00
38
54
44
44
44
44
54
38
00
00
00
ENDCHAR
STARTCHAR char1147
ENCODING 1147
SWIDTH 403 0
DWIDTH 7 0
BBX 7 13 0 -3
BITMAP
00
00
00
00
38
54
44
44
54
38
00
00
00
ENDCHAR
STARTCHAR char1148
ENCODING 1148
SWIDTH 403 0
DWIDTH 7 0
BBX 7 13 0 -3
BITMAP
38
00
10
44
44
44
44
44
54
28
00
00
00
ENDCHAR
STARTCHAR char1149
ENCODING 1149
SWIDTH 403 0
DWIDTH 7 0
BBX 7 13 0 -3
BITMAP
00
00
38
00
54
44
44
44
54
28
00
00
00
ENDCHAR
STARTCHAR char1150
ENCODING 1150
SWIDTH 403 0
DWIDTH 7 0
BBX 7 13 0 -3
BITMAP
7C
54
00
44
44
44
44
54
54
28
00
00
00
ENDCHAR
STARTCHAR char1151
ENCODING 1151
SWIDTH 403 0
DWIDTH 7 0
BBX 7 13 0 -3
BITMAP
00
7C
54
00
54
54
54
54
38
28
00
00
00
ENDCHAR
STARTCHAR char1152
ENCODING 1152
SWIDTH 403 0
DWIDTH 7 0
BBX 7 13 0 -3
BITMAP
00
00
38
44
40
40
40
40
40
38
08
08
00
ENDCHAR
STARTCHAR char1153
ENCODING 1153
SWIDTH 403 0
DWIDTH 7 0
BBX 7 13 0 -3
BITMAP
00
00
00
38
44
40
40
40
40
38
08
08
00
ENDCHAR
STARTCHAR char1154
ENCODING 1154
SWIDTH 403 0
DWIDTH 7 0
BBX 7 13 0 -3
BITMAP
00
00
08
08
70
1C
70
1C
20
20
00
00
00
ENDCHAR
STARTCHAR char1162
ENCODING 1162
SWIDTH 403 0
DWIDTH 7 0
BBX 7 13 0 -3
BITMAP
28
10
44
4C
4C
54
54
64
64
44
04
08
00
ENDCHAR
STARTCHAR char1163
ENCODING 1163
SWIDTH 403 0
DWIDTH 7 0
BBX 7 13 0 -3
BITMAP
00
28
10
00
4C
4C
54
54
64
64
04
08
00
ENDCHAR
STARTCHAR char1164
ENCODING 1164
SWIDTH 403 0
DWIDTH 7 0
BBX 7 13 0 -3
BITMAP
00
00
20
20
70
20
38
24
24
78
00
00
00
ENDCHAR
STARTCHAR char1165
ENCODING 1165
SWIDTH 403 0
DWIDTH 7 0
BBX 7 13 0 -3
BITMAP
00
00
20
20
20
70
20
38
24
38
00
00
00
ENDCHAR
STARTCHAR char1166
ENCODING 1166
SWIDTH 403 0
DWIDTH 7 0
BBX 7 13 0 -3
BITMAP
00
00
78
44
44
54
78
44
40
40
40
00
00
ENDCHAR
STARTCHAR char1167
ENCODING 1167
SWIDTH 403 0
DWIDTH 7 0
BBX 7 13 0 -3
BITMAP
00
00
00
00
58
64
44
44
44
78
44
40
40
ENDCHAR
STARTCHAR char1168
ENCODING 1168
SWIDTH 403 0
DWIDTH 7 0
BBX 7 13 0 -3
BITMAP
00
04
3C
20
20
20
20
20
20
20
00
00
00
ENDCHAR
STARTCHAR char1169
ENCODING 1169
SWIDTH 403 0
DWIDTH 7 0
BBX 7 13 0 -3
BITMAP
00
00
00
04
3C
20
20
20
20
20
00
00
00
ENDCHAR
STARTCHAR char1170
ENCODING 1170
SWIDTH 403 0
DWIDTH 7 0
BBX 7 13 0 -3
BITMAP
00
00
3C
20
20
20
78
20
20
20
00
00
00
ENDCHAR
STARTCHAR char1171
ENCODING 1171
SWIDTH 403 0
DWIDTH 7 0
BBX 7 13 0 -3
BITMAP
00
00
00
00
3C
20
78
20
20
20
00
00
00
ENDCHAR
STARTCHAR char1172
ENCODING 1172
SWIDTH 403 0
DWIDTH 7 0
BBX 7 13 0 -3
BITMAP
00
00
3C
20
20
20
38
24
24
24
04
08
00
ENDCHAR
STARTCHAR char1173
ENCODING 1173
SWIDTH 403 0
DWIDTH 7 0
BBX 7 13 0 -3
BITMAP
00
00
00
00
3C
20
20
38
24
24
04
08
00
ENDCHAR
STARTCHAR char1174
ENCODING 1174
SWIDTH 403 0
DWIDTH 7 0
BBX 7 13 0 -3
BITMAP
00
00
54
54
54
38
38
54
54
54
04
04
00
ENDCHAR
STARTCHAR char1175
ENCODING 1175
SWIDTH 403 0
DWIDTH 7 0
BBX 7 13 0 -3
BITMAP
00
00
00
00
54
54
38
38
54
54
04
04
00
ENDCHAR
STARTCHAR char1176
ENCODING 1176
SWIDTH 403 0
DWIDTH 7 0
BBX 7 13 0 -3
BITMAP
00
00
78
44
04
18
04
04
44
38
00
00
00
ENDCHAR
STARTCHAR char1177
ENCODING 1177
SWIDTH 403 0
DWIDTH 7 0
BBX 7 13 0 -3
BITMAP
00
00
00
00
38
44
18
04
44
38
00
00
00
ENDCHAR
STARTCHAR char1178
ENCODING 1178
SWIDTH 403 0
DWIDTH 7 0
BBX 7 13 0 -3
BITMAP
00
00
48
48
48
50
70
50
48
4C
04
04
00
ENDCHAR
STARTCHAR char1179
ENCODING 1179
SWIDTH 403 0
DWIDTH 7 0
BBX 7 13 0 -3
BITMAP
00
00
00
00
48
48
50
70
48
4C
04
04
00
ENDCHAR
STARTCHAR char1180
ENCODING 1180
SWIDTH 403 0
DWIDTH 7 0
BBX 7 13 0 -3
BITMAP
00
00
44
54
58
50
78
58
54
44
00
00
00
ENDCHAR
STARTCHAR char1181
ENCODING 1181
SWIDTH 403 0
DWIDTH 7 0
BBX 7 13 0 -3
BITMAP
00
00
00
00
44
54
58
78
54
44
00
00
00
ENDCHAR
STARTCHAR char1182
ENCODING 1182
SWIDTH 403 0
DWIDTH 7 0
BBX 7 13 0 -3
BITMAP
00
00
20
74
24
28
38
24
24
24
00
00
00
ENDCHAR
STARTCHAR char1183
ENCODING 1183
SWIDTH 403 0
DWIDTH 7 0
BBX 7 13 0 -3
BITMAP
00
00
20
78
20
24
28
38
28
24
00
00
00
ENDCHAR
STARTCHAR char1184
ENCODING 1184
SWIDTH 403 0
DWIDTH 7 0
BBX 7 13 0 -3
BITMAP
00
00
64
24
28
28
38
24
24
24
00
00
00
ENDCHAR
STARTCHAR char1185
ENCODING 1185
SWIDTH 403 0
DWIDTH 7 0
BBX 7 13 0 -3
BITMAP
00
00
00
00
64
28
28
38
24
24
00
00
00
ENDCHAR
STARTCHAR char1186
ENCODING 1186
SWIDTH 403 0
DWIDTH 7 0
BBX 7 13 0 -3
BITMAP
00
00
48
48
48
78
48
48
48
4C
04
04
00
ENDCHAR
STARTCHAR char1187
ENCODING 1187
SWIDTH 403 0
DWIDTH 7 0
BBX 7 13 0 -3
BITMAP
00
00
00
00
48
48
78
48
48
4C
04
04
00
ENDCHAR
STARTCHAR char1188
ENCODING 1188
SWIDTH 403 0
DWIDTH 7 0
BBX 7 13 0 -3
BITMAP
00
00
4E
48
48
78
48
48
48
48
00
00
00
ENDCHAR
STARTCHAR char1189
ENCODING 1189
SWIDTH 403 0
DWIDTH 7 0
BBX 7 13 0 -3
BITMAP
00
00
00
00
4E
48
78
48
48
48
00
00
00
ENDCHAR
STARTCHAR char1190
ENCODING 1190
SWIDTH 403 0
DWIDTH 7 0
BBX 7 13 0 -3
BITMAP
00
00
70
50
50
50
58
54
54
54
04
08
00
ENDCHAR
STARTCHAR char1191
ENCODING 1191
SWIDTH 403 0
DWIDTH 7 0
BBX 7 13 0 -3
BITMAP
00
00
00
00
70
50
50
58
54
54
04
08
00
ENDCHAR
STARTCHAR char1192
ENCODING 1192
SWIDTH 403 0
DWIDTH 7 0
BBX 7 13 0 -3
BITMAP
00
00
20
48
54
54
54
54
48
34
00
00
00
ENDCHAR
STARTCHAR char1193
ENCODING 1193
SWIDTH 403 0
DWIDTH 7 0
BBX 7 13 0 -3
BITMAP
00
00
00
00
20
48
54
54
48
34
00
00
00
ENDCHAR
STARTCHAR char1194
ENCODING 1194
SWIDTH 403 0
DWIDTH 7 0
BBX 7 13 0 -3
BITMAP
00
00
38
44
40
40
40
40
44
38
08
18
00
ENDCHAR
STARTCHAR char1195
ENCODING 1195
SWIDTH 403 0
DWIDTH 7 0
BBX 7 13 0 -3
BITMAP
00
00
00
00
38
44
40
40
44
38
08
18
00
ENDCHAR
STARTCHAR char1196
ENCODING 1196
SWIDTH 403 0
DWIDTH 7 0
BBX 7 13 0 -3
BITMAP
00
00
7C
10
10
10
10
10
10
18
08
08
00
ENDCHAR
STARTCHAR char1197
ENCODING 1197
SWIDTH 403 0
DWIDTH 7 0
BBX 7 13 0 -3
BITMAP
00
00
00
00
7C
10
10
10
10
18
08
08
00
ENDCHAR
STARTCHAR char1198
ENCODING 1198
SWIDTH 403 0
DWIDTH 7 0
BBX 7 13 0 -3
BITMAP
00
00
44
44
28
28
10
10
10
10
00
00
00
ENDCHAR
STARTCHAR char1199
ENCODING 1199
SWIDTH 403 0
DWIDTH 7 0
BBX 7 13 0 -3
BITMAP
00
00
00
00
44
44
28
28
10
10
10
10
00
ENDCHAR
STARTCHAR char1200
ENCODING 1200
SWIDTH 403 0
DWIDTH 7 0
BBX 7 13 0 -3
BITMAP
00
00
44
44
28
28
10
38
10
10
00
00
00
ENDCHAR
STARTCHAR char1201
ENCODING 1201
SWIDTH 403 0
DWIDTH 7 0
BBX 7 13 0 -3
BITMAP
00
00
00
00
44
44
28
28
10
38
10
10
00
ENDCHAR
STARTCHAR char1202
ENCODING 1202
SWIDTH 403 0
DWIDTH 7 0
BBX 7 13 0 -3
BITMAP
00
00
44
44
28
10
10
28
44
44
04
04
00
ENDCHAR
STARTCHAR char1203
ENCODING 1203
SWIDTH 403 0
DWIDTH 7 0
BBX 7 13 0 -3
BITMAP
00
00
00
00
44
28
10
10
28
44
04
04
00
ENDCHAR
STARTCHAR char1204
ENCODING 1204
SWIDTH 403 0
DWIDTH 7 0
BBX 7 13 0 -3
BITMAP
00
00
74
24
24
24
24
24
24
3E
02
00
00
ENDCHAR
STARTCHAR char1205
ENCODING 1205
SWIDTH 403 0
DWIDTH 7 0
BBX 7 13 0 -3
BITMAP
00
00
00
00
74
24
24
24
24
3E
02
00
00
ENDCHAR
STARTCHAR char1206
ENCODING 1206
SWIDTH 403 0
DWIDTH 7 0
BBX 7 13 0 -3
BITMAP
00
00
48
48
48
48
38
08
08
0C
04
04
00
ENDCHAR
STARTCHAR char1207
ENCODING 1207
SWIDTH 403 0
DWIDTH 7 0
BBX 7 13 0 -3
BITMAP
00
00
00
00
48
48
48
38
08
0C
04
04
00
ENDCHAR
STARTCHAR char1208
ENCODING 1208
SWIDTH 403 0
DWIDTH 7 0
BBX 7 13 0 -3
BITMAP
00
00
44
44
44
54
3C
14
04
04
00
00
00
ENDCHAR
STARTCHAR char1209
ENCODING 1209
SWIDTH 403 0
DWIDTH 7 0
BBX 7 13 0 -3
BITMAP
00
00
00
00
44
44
54
3C
14
04
00
00
00
ENDCHAR
STARTCHAR char1210
ENCODING 1210
SWIDTH 403 0
DWIDTH 7 0
BBX 7 13 0 -3
BITMAP
00
00
40
40
40
78
44
44
44
44
00
00
00
ENDCHAR
STARTCHAR char1211
ENCODING 1211
SWIDTH 403 0
DWIDTH 7 0
BBX 7 13 0 -3
BITMAP
00
00
00
00
40
40
78
44
44
44
00
00
00
ENDCHAR
STARTCHAR char1212
ENCODING 1212
SWIDTH 403 0
DWIDTH 7 0
BBX 7 13 0 -3
BITMAP
00
00
08
14
54
3C
10
10
14
08
00
00
00
ENDCHAR
STARTCHAR char1213
ENCODING 1213
SWIDTH 403 0
DWIDTH 7 0
BBX 7 13 0 -3
BITMAP
00
00
00
00
08
54
3C
10
14
08
00
00
00
ENDCHAR
STARTCHAR char1214
ENCODING 1214
SWIDTH 403 0
DWIDTH 7 0
BBX 7 13 0 -3
BITMAP
00
00
08
14
54
3C
10
10
14
08
08
08
00
ENDCHAR
STARTCHAR char1215
ENCODING 1215
SWIDTH 403 0
DWIDTH 7 0
BBX 7 13 0 -3
BITMAP
00
00
00
00
08
54
3C
10
14
08
08
08
00
ENDCHAR
STARTCHAR char1216
ENCODING 1216
SWIDTH 403 0
DWIDTH 7 0
BBX 7 13 0 -3
BITMAP
00
00
38
10
10
10
10
10
10
38
00
00
00
ENDCHAR
STARTCHAR char1217
ENCODING 1217
SWIDTH 403 0
DWIDTH 7 0
BBX 7 13 0 -3
BITMAP
28
10
00
54
54
54
38
54
54
54
00
00
00
ENDCHAR
STARTCHAR char1218
ENCODING 1218
SWIDTH 403 0
DWIDTH 7 0
BBX 7 13 0 -3
BITMAP
00
28
10
00
54
54
38
38
54
54
00
00
00
ENDCHAR
STARTCHAR char1219
ENCODING 1219
SWIDTH 403 0
DWIDTH 7 0
BBX 7 13 0 -3
BITMAP
00
00
44
44
48
50
68
48
44
44
04
18
00
ENDCHAR
STARTCHAR char1220
ENCODING 1220
SWIDTH 403 0
DWIDTH 7 0
BBX 7 13 0 -3
BITMAP
00
00
00
00
44
48
50
68
48
44
04
18
00
ENDCHAR
STARTCHAR char1221
ENCODING 1221
SWIDTH 403 0
DWIDTH 7 0
BBX 7 13 0 -3
BITMAP
00
00
3C
24
24
24
24
24
24
44
04
08
00
ENDCHAR
STARTCHAR char1222
ENCODING 1222
SWIDTH 403 0
DWIDTH 7 0
BBX 7 13 0 -3
BITMAP
00
00
00
00
3C
24
24
24
24
44
04
08
00
ENDCHAR
STARTCHAR char1223
ENCODING 1223
SWIDTH 403 0
DWIDTH 7 0
BBX 7 13 0 -3
BITMAP
00
00
44
44
44
7C
44
44
44
44
18
00
00
ENDCHAR
STARTCHAR char1224
ENCODING 1224
SWIDTH 403 0
DWIDTH 7 0
BBX 7 13 0 -3
BITMAP
00
00
00
00
44
44
44
7C
44
44
18
00
00
ENDCHAR
STARTCHAR char1225
ENCODING 1225
SWIDTH 403 0
DWIDTH 7 0
BBX 7 13 0 -3
BITMAP
00
00
44
44
44
7C
44
44
44
44
04
08
00
ENDCHAR
STARTCHAR char1226
ENCODING 1226
SWIDTH 403 0
DWIDTH 7 0
BBX 7 13 0 -3
BITMAP
00
00
00
00
44
44
44
7C
44
44
04
08
00
ENDCHAR
STARTCHAR char1227
ENCODING 1227
SWIDTH 403 0
DWIDTH 7 0
BBX 7 13 0 -3
BITMAP
00
00
44
44
44
44
3C
04
04
0C
08
08
00
ENDCHAR
STARTCHAR char1228
ENCODING 1228
SWIDTH 403 0
DWIDTH 7 0
BBX 7 13 0 -3
BITMAP
00
00
00
00
44
44
44
3C
04
0C
08
08
00
ENDCHAR
STARTCHAR char1229
ENCODING 1229
SWIDTH 403 0
DWIDTH 7 0
BBX 7 13 0 -3
BITMAP
00
00
44
44
6C
6C
54
54
44
44
04
08
00
ENDCHAR
STARTCHAR char1230
ENCODING 1230
SWIDTH 403 0
DWIDTH 7 0
BBX 7 13 0 -3
BITMAP
00
00
00
00
44
6C
6C
54
54
44
04
08
00
ENDCHAR
STARTCHAR char1231
ENCODING 1231
SWIDTH 403 0
DWIDTH 7 0
BBX 7 13 0 -3
BITMAP
00
00
30
10
10
10
10
10
10
10
00
00
00
ENDCHAR
STARTCHAR char1232
ENCODING 1232
SWIDTH 403 0
DWIDTH 7 0
BBX 7 13 0 -3
BITMAP
28
10
00
10
10
28
38
28
44
44
00
00
00
ENDCHAR
STARTCHAR char1233
ENCODING 1233
SWIDTH 403 0
DWIDTH 7 0
BBX 7 13 0 -3
BITMAP
00
28
10
00
38
04
3C
44
4C
34
00
00
00
ENDCHAR
STARTCHAR char1232
ENCODING 1234
SWIDTH 403 0
DWIDTH 7 0
BBX 7 13 0 -3
BITMAP
28
00
10
10
28
38
28
44
44
44
00
00
00
ENDCHAR
STARTCHAR char1235
ENCODING 1235
SWIDTH 403 0
DWIDTH 7 0
BBX 7 13 0 -3
BITMAP
00
00
28
00
38
04
3C
44
4C
34
00
00
00
ENDCHAR
STARTCHAR char1236
ENCODING 1236
SWIDTH 403 0
DWIDTH 7 0
BBX 7 13 0 -3
BITMAP
00
00
1C
18
28
2C
38
28
48
4C
00
00
00
ENDCHAR
STARTCHAR char1237
ENCODING 1237
SWIDTH 403 0
DWIDTH 7 0
BBX 7 13 0 -3
BITMAP
00
00
00
00
68
14
3C
50
54
28
00
00
00
ENDCHAR
STARTCHAR char1238
ENCODING 1238
SWIDTH 403 0
DWIDTH 7 0
BBX 7 13 0 -3
BITMAP
28
10
00
7C
40
40
78
40
40
7C
00
00
00
ENDCHAR
STARTCHAR char1239
ENCODING 1239
SWIDTH 403 0
DWIDTH 7 0
BBX 7 13 0 -3
BITMAP
00
00
00
00
38
44
7C
40
44
38
00
00
00
ENDCHAR
STARTCHAR char1240
ENCODING 1240
SWIDTH 403 0
DWIDTH 7 0
BBX 7 13 0 -3
BITMAP
00
00
38
44
04
04
7C
44
44
38
00
00
00
ENDCHAR
STARTCHAR char1241
ENCODING 1241
SWIDTH 403 0
DWIDTH 7 0
BBX 7 13 0 -3
BITMAP
00
00
00
00
38
44
04
7C
44
38
00
00
00
ENDCHAR
STARTCHAR char1242
ENCODING 1242
SWIDTH 403 0
DWIDTH 7 0
BBX 7 13 0 -3
BITMAP
28
00
38
44
04
04
7C
44
44
38
00
00
00
ENDCHAR
STARTCHAR char1243
ENCODING 1243
SWIDTH 403 0
DWIDTH 7 0
BBX 7 13 0 -3
BITMAP
00
00
28
00
38
44
04
7C
44
38
00
00
00
ENDCHAR
STARTCHAR char1244
ENCODING 1244
SWIDTH 403 0
DWIDTH 7 0
BBX 7 13 0 -3
BITMAP
28
00
54
54
54
38
38
54
54
54
00
00
00
ENDCHAR
STARTCHAR char1245
ENCODING 1245
SWIDTH 403 0
DWIDTH 7 0
BBX 7 13 0 -3
BITMAP
00
00
28
00
54
54
38
38
54
54
00
00
00
ENDCHAR
STARTCHAR char1246
ENCODING 1246
SWIDTH 403 0
DWIDTH 7 0
BBX 7 13 0 -3
BITMAP
28
00
78
44
04
18
04
04
44
38
00
00
00
ENDCHAR
STARTCHAR char1248
ENCODING 1247
SWIDTH 403 0
DWIDTH 7 0
BBX 7 13 0 -3
BITMAP
00
00
28
00
38
44
18
04
44
38
00
00
00
ENDCHAR
STARTCHAR char1248
ENCODING 1248
SWIDTH 403 0
DWIDTH 7 0
BBX 7 13 0 -3
BITMAP
00
00
7C
04
08
18
04
04
44
38
00
00
00
ENDCHAR
STARTCHAR char1249
ENCODING 1249
SWIDTH 403 0
DWIDTH 7 0
BBX 7 13 0 -3
BITMAP
00
00
00
00
7C
04
08
10
38
04
44
38
00
ENDCHAR
STARTCHAR char1250
ENCODING 1250
SWIDTH 403 0
DWIDTH 7 0
BBX 7 13 0 -3
BITMAP
38
00
44
4C
4C
54
54
64
64
44
00
00
00
ENDCHAR
STARTCHAR char1251
ENCODING 1251
SWIDTH 403 0
DWIDTH 7 0
BBX 7 13 0 -3
BITMAP
00
00
38
00
4C
4C
54
54
64
64
00
00
00
ENDCHAR
STARTCHAR char1252
ENCODING 1252
SWIDTH 403 0
DWIDTH 7 0
BBX 7 13 0 -3
BITMAP
28
00
44
4C
4C
54
54
64
64
44
00
00
00
ENDCHAR
STARTCHAR char1253
ENCODING 1253
SWIDTH 403 0
DWIDTH 7 0
BBX 7 13 0 -3
BITMAP
00
00
28
00
4C
4C
54
54
64
64
00
00
00
ENDCHAR
STARTCHAR char1254
ENCODING 1254
SWIDTH 403 0
DWIDTH 7 0
BBX 7 13 0 -3
BITMAP
28
00
38
44
44
44
44
44
44
38
00
00
00
ENDCHAR
STARTCHAR char1255
ENCODING 1255
SWIDTH 403 0
DWIDTH 7 0
BBX 7 13 0 -3
BITMAP
00
00
28
00
38
44
44
44
44
38
00
00
00
ENDCHAR
STARTCHAR char1256
ENCODING 1256
SWIDTH 403 0
DWIDTH 7 0
BBX 7 13 0 -3
BITMAP
00
00
38
44
44
44
7C
44
44
38
00
00
00
ENDCHAR
STARTCHAR char1257
ENCODING 1257
SWIDTH 403 0
DWIDTH 7 0
BBX 7 13 0 -3
BITMAP
00
00
00
00
38
44
44
7C
44
38
00
00
00
ENDCHAR
STARTCHAR char1258
ENCODING 1258
SWIDTH 403 0
DWIDTH 7 0
BBX 7 13 0 -3
BITMAP
28
00
38
44
44
44
7C
44
44
38
00
00
00
ENDCHAR
STARTCHAR char1259
ENCODING 1259
SWIDTH 403 0
DWIDTH 7 0
BBX 7 13 0 -3
BITMAP
00
00
28
00
38
44
44
7C
44
38
00
00
00
ENDCHAR
STARTCHAR char1260
ENCODING 1260
SWIDTH 403 0
DWIDTH 7 0
BBX 7 13 0 -3
BITMAP
28
00
30
48
04
3C
04
04
48
30
00
00
00
ENDCHAR
STARTCHAR char1261
ENCODING 1261
SWIDTH 403 0
DWIDTH 7 0
BBX 7 13 0 -3
BITMAP
00
00
28
00
78
04
3C
04
04
78
00
00
00
ENDCHAR
STARTCHAR char1262
ENCODING 1262
SWIDTH 403 0
DWIDTH 7 0
BBX 7 13 0 -3
BITMAP
38
00
44
44
44
44
28
28
10
60
00
00
00
ENDCHAR
STARTCHAR char1262
ENCODING 1263
SWIDTH 403 0
DWIDTH 7 0
BBX 7 13 0 -3
BITMAP
00
00
38
00
44
44
44
28
28
10
10
60
00
ENDCHAR
STARTCHAR char1262
ENCODING 1264
SWIDTH 403 0
DWIDTH 7 0
BBX 7 13 0 -3
BITMAP
28
00
44
44
44
44
28
28
10
60
00
00
00
ENDCHAR
STARTCHAR char1262
ENCODING 1265
SWIDTH 403 0
DWIDTH 7 0
BBX 7 13 0 -3
BITMAP
00
00
28
00
44
44
44
28
28
10
10
60
00
ENDCHAR
STARTCHAR char1262
ENCODING 1266
SWIDTH 403 0
DWIDTH 7 0
BBX 7 13 0 -3
BITMAP
14
28
00
44
44
44
28
28
10
60
00
00
00
ENDCHAR
STARTCHAR char1262
ENCODING 1267
SWIDTH 403 0
DWIDTH 7 0
BBX 7 13 0 -3
BITMAP
00
14
28
00
44
44
44
28
28
10
10
60
00
ENDCHAR
STARTCHAR char1268
ENCODING 1268
SWIDTH 403 0
DWIDTH 7 0
BBX 7 13 0 -3
BITMAP
28
00
44
44
44
44
3C
04
04
04
00
00
00
ENDCHAR
STARTCHAR char1269
ENCODING 1269
SWIDTH 403 0
DWIDTH 7 0
BBX 7 13 0 -3
BITMAP
00
00
24
00
44
44
44
3C
04
04
00
00
00
ENDCHAR
STARTCHAR char1270
ENCODING 1270
SWIDTH 403 0
DWIDTH 7 0
BBX 7 13 0 -3
BITMAP
00
00
3C
20
20
20
20
20
20
30
10
10
00
ENDCHAR
STARTCHAR char1271
ENCODING 1271
SWIDTH 403 0
DWIDTH 7 0
BBX 7 13 0 -3
BITMAP
00
00
00
00
3C
20
20
20
20
30
10
10
00
ENDCHAR
STARTCHAR char1272
ENCODING 1272
SWIDTH 403 0
DWIDTH 7 0
BBX 7 13 0 -3
BITMAP
28
00
44
44
44
64
54
54
54
64
00
00
00
ENDCHAR
STARTCHAR char1273
ENCODING 1273
SWIDTH 403 0
DWIDTH 7 0
BBX 7 13 0 -3
BITMAP
00
00
28
00
44
44
64
54
54
64
00
00
00
ENDCHAR
STARTCHAR char1274
ENCODING 1274
SWIDTH 403 0
DWIDTH 7 0
BBX 7 13 0 -3
BITMAP
00
00
3C
20
20
20
78
20
20
38
08
30
00
ENDCHAR
STARTCHAR char1275
ENCODING 1275
SWIDTH 403 0
DWIDTH 7 0
BBX 7 13 0 -3
BITMAP
00
00
00
00
1E
10
3C
10
10
1C
04
18
00
ENDCHAR
STARTCHAR char1276
ENCODING 1276
SWIDTH 403 0
DWIDTH 7 0
BBX 7 13 0 -3
BITMAP
00
00
44
44
28
10
10
28
44
44
04
18
00
ENDCHAR
STARTCHAR char1277
ENCODING 1277
SWIDTH 403 0
DWIDTH 7 0
BBX 7 13 0 -3
BITMAP
00
00
00
00
44
28
10
10
28
44
04
18
00
ENDCHAR
STARTCHAR char1278
ENCODING 1278
SWIDTH 403 0
DWIDTH 7 0
BBX 7 13 0 -3
BITMAP
00
00
44
44
28
7C
38
28
44
44
00
00
00
ENDCHAR
STARTCHAR char1279
ENCODING 1279
SWIDTH 403 0
DWIDTH 7 0
BBX 7 13 0 -3
BITMAP
00
00
00
00
44
28
7C
38
28
44
00
00
00
ENDCHAR
STARTCHAR char1280
ENCODING 1280
SWIDTH 403 0
DWIDTH 7 0
BBX 7 13 0 -3
BITMAP
00
00
1C
08
38
48
48
48
48
3C
00
00
00
ENDCHAR
STARTCHAR char1281
ENCODING 1281
SWIDTH 403 0
DWIDTH 7 0
BBX 7 13 0 -3
BITMAP
00
00
04
34
4C
44
44
44
4C
34
00
00
00
ENDCHAR
STARTCHAR char1282
ENCODING 1282
SWIDTH 403 0
DWIDTH 7 0
BBX 7 13 0 -3
BITMAP
00
00
38
10
30
54
54
54
54
38
00
00
00
ENDCHAR
STARTCHAR char1283
ENCODING 1283
SWIDTH 403 0
DWIDTH 7 0
BBX 7 13 0 -3
BITMAP
00
10
10
30
50
50
50
54
54
38
00
00
00
ENDCHAR
STARTCHAR char1284
ENCODING 1284
SWIDTH 403 0
DWIDTH 7 0
BBX 7 13 0 -3
BITMAP
00
00
60
10
10
64
14
14
14
08
00
00
00
ENDCHAR
STARTCHAR char1285
ENCODING 1285
SWIDTH 403 0
DWIDTH 7 0
BBX 7 13 0 -3
BITMAP
00
00
00
00
60
10
14
64
14
08
00
00
00
ENDCHAR
STARTCHAR char1286
ENCODING 1286
SWIDTH 403 0
DWIDTH 7 0
BBX 7 13 0 -3
BITMAP
00
00
30
48
08
10
30
08
08
0C
04
04
00
ENDCHAR
STARTCHAR char1287
ENCODING 1287
SWIDTH 403 0
DWIDTH 7 0
BBX 7 13 0 -3
BITMAP
00
00
00
00
30
48
08
30
08
0C
04
04
00
ENDCHAR
STARTCHAR char1288
ENCODING 1288
SWIDTH 403 0
DWIDTH 7 0
BBX 7 13 0 -3
BITMAP
00
00
70
50
54
54
54
54
54
88
00
00
00
ENDCHAR
STARTCHAR char1289
ENCODING 1289
SWIDTH 403 0
DWIDTH 7 0
BBX 7 13 0 -3
BITMAP
00
00
00
00
70
50
54
54
54
88
00
00
00
ENDCHAR
STARTCHAR char1290
ENCODING 1290
SWIDTH 403 0
DWIDTH 7 0
BBX 7 13 0 -3
BITMAP
00
00
50
50
54
74
54
54
54
48
00
00
00
ENDCHAR
STARTCHAR char1291
ENCODING 1291
SWIDTH 403 0
DWIDTH 7 0
BBX 7 13 0 -3
BITMAP
00
00
00
00
50
50
74
54
54
48
00
00
00
ENDCHAR
STARTCHAR char1292
ENCODING 1292
SWIDTH 403 0
DWIDTH 7 0
BBX 7 13 0 -3
BITMAP
00
00
38
44
40
44
44
44
44
38
00
00
00
ENDCHAR
STARTCHAR char1293
ENCODING 1293
SWIDTH 403 0
DWIDTH 7 0
BBX 7 13 0 -3
BITMAP
00
00
00
00
38
44
40
44
44
38
00
00
00
ENDCHAR
STARTCHAR char1294
ENCODING 1294
SWIDTH 403 0
DWIDTH 7 0
BBX 7 13 0 -3
BITMAP
00
00
7C
10
10
14
14
14
14
08
00
00
00
ENDCHAR
STARTCHAR char1295
ENCODING 1295
SWIDTH 403 0
DWIDTH 7 0
BBX 7 13 0 -3
BITMAP
00
00
00
00
7C
10
14
14
14
08
00
00
00
ENDCHAR
STARTCHAR char1296
ENCODING 1296
SWIDTH 403 0
DWIDTH 7 0
BBX 7 13 0 -3
BITMAP
00
00
3C
44
40
30
40
40
44
38
00
00
00
ENDCHAR
STARTCHAR char1297
ENCODING 1297
SWIDTH 403 0
DWIDTH 7 0
BBX 7 13 0 -3
BITMAP
00
00
00
00
38
44
30
40
44
38
00
00
00
ENDCHAR
STARTCHAR char1298
ENCODING 1298
SWIDTH 403 0
DWIDTH 7 0
BBX 7 13 0 -3
BITMAP
00
00
3C
24
24
24
24
24
24
44
18
00
00
ENDCHAR
STARTCHAR char1299
ENCODING 1299
SWIDTH 403 0
DWIDTH 7 0
BBX 7 13 0 -3
BITMAP
00
00
00
00
3C
24
24
24
24
44
18
00
00
ENDCHAR
STARTCHAR char1300
ENCODING 1300
SWIDTH 403 0
DWIDTH 7 0
BBX 7 13 0 -3
BITMAP
00
00
74
54
54
48
48
54
54
94
00
00
00
ENDCHAR
STARTCHAR char1301
ENCODING 1301
SWIDTH 403 0
DWIDTH 7 0
BBX 7 13 0 -3
BITMAP
00
00
00
00
74
54
48
48
54
94
00
00
00
ENDCHAR
STARTCHAR char1302
ENCODING 1302
SWIDTH 403 0
DWIDTH 7 0
BBX 7 13 0 -3
BITMAP
00
00
64
54
58
50
70
48
44
44
00
00
00
ENDCHAR
STARTCHAR char1303
ENCODING 1303
SWIDTH 403 0
DWIDTH 7 0
BBX 7 13 0 -3
BITMAP
00
00
00
00
64
54
58
58
54
64
40
40
40
ENDCHAR
STARTCHAR char1304
ENCODING 1304
SWIDTH 403 0
DWIDTH 7 0
BBX 7 13 0 -3
BITMAP
00
00
3C
48
48
3C
18
28
28
4C
00
00
00
ENDCHAR
STARTCHAR char1305
ENCODING 1305
SWIDTH 403 0
DWIDTH 7 0
BBX 7 13 0 -3
BITMAP
00
00
00
00
38
54
38
30
54
48
00
00
00
ENDCHAR
STARTCHAR char1306
ENCODING 1306
SWIDTH 403 0
DWIDTH 7 0
BBX 7 13 0 -3
BITMAP
00
00
38
44
44
44
44
44
44
38
10
08
00
ENDCHAR
STARTCHAR char1307
ENCODING 1307
SWIDTH 403 0
DWIDTH 7 0
BBX 7 13 0 -3
BITMAP
00
00
00
00
3C
44
44
44
44
3C
04
04
06
ENDCHAR
STARTCHAR char1308
ENCODING 1308
SWIDTH 403 0
DWIDTH 7 0
BBX 7 13 0 -3
BITMAP
00
00
54
54
54
54
54
28
28
28
00
00
00
ENDCHAR
STARTCHAR char1309
ENCODING 1309
SWIDTH 403 0
DWIDTH 7 0
BBX 7 13 0 -3
BITMAP
00
00
00
00
54
54
54
54
28
28
00
00
00
ENDCHAR
STARTCHAR char1310
ENCODING 1310
SWIDTH 403 0
DWIDTH 7 0
BBX 7 13 0 -3
BITMAP
00
00
44
54
48
54
70
48
44
44
00
00
00
ENDCHAR
STARTCHAR char1311
ENCODING 1311
SWIDTH 403 0
DWIDTH 7 0
BBX 7 13 0 -3
BITMAP
00
00
00
00
54
48
54
70
48
44
00
00
00
ENDCHAR
STARTCHAR char1312
ENCODING 1312
SWIDTH 403 0
DWIDTH 7 0
BBX 7 13 0 -3
BITMAP
00
00
70
50
50
50
58
54
54
94
04
08
00
ENDCHAR
STARTCHAR char1313
ENCODING 1313
SWIDTH 403 0
DWIDTH 7 0
BBX 7 13 0 -3
BITMAP
00
00
00
00
70
50
50
58
54
94
04
08
00
ENDCHAR
STARTCHAR char1314
ENCODING 1314
SWIDTH 403 0
DWIDTH 7 0
BBX 7 13 0 -3
BITMAP
00
00
50
50
50
78
54
54
54
54
04
08
00
ENDCHAR
STARTCHAR char1315
ENCODING 1315
SWIDTH 403 0
DWIDTH 7 0
BBX 7 13 0 -3
BITMAP
00
00
00
00
50
50
50
78
54
54
04
08
00
ENDCHAR
STARTCHAR char1316
ENCODING 1316
SWIDTH 403 0
DWIDTH 7 0
BBX 7 13 0 -3
BITMAP
00
00
78
48
48
48
48
48
48
4C
04
04
00
ENDCHAR
STARTCHAR char1317
ENCODING 1317
SWIDTH 403 0
DWIDTH 7 0
BBX 7 13 0 -3
BITMAP
00
00
00
00
78
48
48
48
48
4C
04
04
00
ENDCHAR
STARTCHAR char1318
ENCODING 1318
SWIDTH 403 0
DWIDTH 7 0
BBX 7 13 0 -3
BITMAP
00
00
40
40
40
70
48
48
48
4C
04
04
00
ENDCHAR
STARTCHAR char1319
ENCODING 1319
SWIDTH 403 0
DWIDTH 7 0
BBX 7 13 0 -3
BITMAP
00
00
00
00
40
40
70
48
48
4C
04
04
00
ENDCHAR
STARTCHAR char1320
ENCODING 1320
SWIDTH 403 0
DWIDTH 7 0
BBX 7 13 0 -3
BITMAP
00
00
24
24
24
3C
24
24
24
24
A0
40
00
ENDCHAR
STARTCHAR char1321
ENCODING 1321
SWIDTH 403 0
DWIDTH 7 0
BBX 7 13 0 -3
BITMAP
00
00
00
00
24
24
24
3C
24
24
A0
40
00
ENDCHAR
STARTCHAR char1322
ENCODING 1322
SWIDTH 403 0
DWIDTH 7 0
BBX 7 13 0 -3
BITMAP
00
00
14
34
34
54
58
54
54
74
50
00
00
ENDCHAR
STARTCHAR char1323
ENCODING 1323
SWIDTH 403 0
DWIDTH 7 0
BBX 7 13 0 -3
BITMAP
00
00
00
00
14
34
34
58
54
74
00
00
00
ENDCHAR
STARTCHAR char1324
ENCODING 1324
SWIDTH 403 0
DWIDTH 7 0
BBX 7 13 0 -3
BITMAP
00
00
48
58
58
68
38
28
48
7C
44
00
00
ENDCHAR
STARTCHAR char1325
ENCODING 1325
SWIDTH 403 0
DWIDTH 7 0
BBX 7 13 0 -3
BITMAP
00
00
00
00
48
58
38
18
28
7C
44
00
00
ENDCHAR
STARTCHAR char1326
ENCODING 1326
SWIDTH 403 0
DWIDTH 7 0
BBX 7 13 0 -3
BITMAP
00
00
38
28
28
28
28
28
28
4C
04
04
00
ENDCHAR
STARTCHAR char1327
ENCODING 1327
SWIDTH 403 0
DWIDTH 7 0
BBX 7 13 0 -3
BITMAP
00
00
00
00
38
28
28
28
28
4C
04
04
00
ENDCHAR
STARTCHAR char7838
ENCODING 7838
SWIDTH 403 0
DWIDTH 7 0
BBX 7 13 0 -3
BITMAP
00
00
30
48
48
50
4C
44
44
58
40
40
40
ENDCHAR
STARTCHAR char8211
ENCODING 8211
SWIDTH 403 0
DWIDTH 7 0
BBX 7 13 0 -3
BITMAP
00
00
00
00
00
00
FC
00
00
00
00
00
00
ENDCHAR
STARTCHAR char8212
ENCODING 8212
SWIDTH 403 0
DWIDTH 7 0
BBX 7 13 0 -3
BITMAP
00
00
00
00
00
00
FE
00
00
00
00
00
00
ENDCHAR
STARTCHAR char8216
ENCODING 8216
SWIDTH 403 0
DWIDTH 7 0
BBX 7 13 0 -3
BITMAP
00
00
10
20
20
30
00
00
00
00
00
00
00
ENDCHAR
STARTCHAR char8217
ENCODING 8217
SWIDTH 403 0
DWIDTH 7 0
BBX 7 13 0 -3
BITMAP
00
00
30
10
10
20
00
00
00
00
00
00
00
ENDCHAR
STARTCHAR char8218
ENCODING 8218
SWIDTH 403 0
DWIDTH 7 0
BBX 7 13 0 -3
BITMAP
00
00
00
00
00
00
00
00
30
10
10
20
00
ENDCHAR
STARTCHAR char8220
ENCODING 8220
SWIDTH 403 0
DWIDTH 7 0
BBX 7 13 0 -3
BITMAP
00
00
24
48
48
6C
00
00
00
00
00
00
00
ENDCHAR
STARTCHAR char8221
ENCODING 8221
SWIDTH 403 0
DWIDTH 7 0
BBX 7 13 0 -3
BITMAP
00
00
6C
24
24
48
00
00
00
00
00
00
00
ENDCHAR
STARTCHAR char8222
ENCODING 8222
SWIDTH 403 0
DWIDTH 7 0
BBX 7 13 0 -3
BITMAP
00
00
00
00
00
00
00
00
6C
24
24
48
00
ENDCHAR
STARTCHAR char8230
ENCODING 8230
SWIDTH 403 0
DWIDTH 7 0
BBX 7 13 0 -3
BITMAP
00
00
00
00
00
00
00
00
92
92
00
00
00
ENDCHAR
STARTCHAR char8249
ENCODING 8249
SWIDTH 403 0
DWIDTH 7 0
BBX 7 13 0 -3
BITMAP
00
00
00
10
20
40
20
10
00
00
00
00
00
ENDCHAR
STARTCHAR char8250
ENCODING 8250
SWIDTH 403 0
DWIDTH 7 0
BBX 7 13 0 -3
BITMAP
00
00
00
00
20
10
08
10
20
00
00
00
00
ENDCHAR
STARTCHAR char8592
ENCODING 8592
SWIDTH 403 0
DWIDTH 7 0
BBX 7 13 0 -3
BITMAP
00
00
00
10
20
7C
20
10
00
00
00
00
00
ENDCHAR
STARTCHAR char8734
ENCODING 8734
SWIDTH 403 0
DWIDTH 7 0
BBX 7 13 0 -3
BITMAP
00
00
00
00
28
54
54
28
00
00
00
00
00
ENDCHAR
STARTCHAR char9837
ENCODING 9837
SWIDTH 403 0
DWIDTH 7 0
BBX 7 13 0 -3
BITMAP
00
10
18
14
18
00
00
00
00
00
00
00
00
ENDCHAR
STARTCHAR char9839
ENCODING 9839
SWIDTH 403 0
DWIDTH 7 0
BBX 7 13 0 -3
BITMAP
00
28
7C
28
7C
28
00
00
00
00
00
00
00
ENDCHAR
STARTCHAR char57344
ENCODING 57344
SWIDTH 403 0
DWIDTH 7 0
BBX 7 13 0 -3
BITMAP
00
00
44
6C
6C
7C
54
54
44
C6
00
00
00
ENDCHAR
STARTCHAR char57504
ENCODING 57504
SWIDTH 403 0
DWIDTH 7 0
BBX 7 13 0 -3
BITMAP
00
00
40
48
4C
48
48
48
10
20
40
40
00
ENDCHAR
STARTCHAR char57505
ENCODING 57505
SWIDTH 403 0
DWIDTH 7 0
BBX 7 13 0 -3
BITMAP
00
40
40
40
70
00
24
34
2C
24
00
00
00
ENDCHAR
STARTCHAR char57506
ENCODING 57506
SWIDTH 403 0
DWIDTH 7 0
BBX 7 13 0 -3
BITMAP
00
10
28
28
28
7C
7C
7C
7C
7C
00
00
00
ENDCHAR
STARTCHAR char57507
ENCODING 57507
SWIDTH 403 0
DWIDTH 7 0
BBX 7 13 0 -3
BITMAP
00
30
40
40
30
00
24
34
2C
24
00
00
00
ENDCHAR
STARTCHAR char57520
ENCODING 57520
SWIDTH 403 0
DWIDTH 7 0
BBX 7 13 0 -3
BITMAP
80
C0
E0
F0
F8
FC
FE
FC
F8
F0
E0
C0
80
ENDCHAR
STARTCHAR char57521
ENCODING 57521
SWIDTH 403 0
DWIDTH 7 0
BBX 7 13 0 -3
BITMAP
80
40
20
10
08
04
02
04
08
10
20
40
80
ENDCHAR
STARTCHAR char57522
ENCODING 57522
SWIDTH 403 0
DWIDTH 7 0
BBX 7 13 0 -3
BITMAP
02
06
0E
1E
3E
7E
FE
7E
3E
1E
0E
06
02
ENDCHAR
STARTCHAR char57523
ENCODING 57523
SWIDTH 403 0
DWIDTH 7 0
BBX 7 13 0 -3
BITMAP
02
04
08
10
20
40
80
40
20
10
08
04
02
ENDCHAR
ENDFONT
